<svg viewBox="0 0 30 30" fill="none" xmlns="http://www.w3.org/2000/svg">
   <path id="circle" fill="#FFE55F" fill-rule="nonzero" d="M15 27.69c3.5,0 6.68,-1.42 8.97,-3.72 2.3,-2.29 3.72,-5.47 3.72,-8.97 0,-3.5 -1.42,-6.68 -3.72,-8.97 -2.29,-2.3 -5.47,-3.72 -8.97,-3.72 -3.5,0 -6.68,1.42 -8.97,3.72 -2.3,2.29 -3.72,5.47 -3.72,8.97 0,3.5 1.42,6.68 3.72,8.97 2.29,2.3 5.47,3.72 8.97,3.72zm10.61 -2.08c-2.72,2.71 -6.47,4.39 -10.61,4.39 -4.14,0 -7.89,-1.68 -10.61,-4.39 -2.71,-2.72 -4.39,-6.47 -4.39,-10.61 0,-4.14 1.68,-7.89 4.39,-10.61 2.72,-2.71 6.47,-4.39 10.61,-4.39 4.14,0 7.89,1.68 10.61,4.39 2.71,2.72 4.39,6.47 4.39,10.61 0,4.14 -1.68,7.89 -4.39,10.61z"/>
</svg>
