<svg viewBox="0 0 30 30" fill="none" xmlns="http://www.w3.org/2000/svg">
  <path id="enter" fill="#FFE55F" fill-rule="nonzero" d="M8.88 6.03c0.54,-0.56 1.44,-0.59 2.01,-0.05 0.56,0.54 0.58,1.44 0.04,2.01l-6.19 6.48 17.05 0c0.71,0 1.4,-0.15 2.04,-0.42 0.64,-0.28 1.23,-0.69 1.73,-1.22 0.49,-0.51 0.88,-1.1 1.15,-1.75l0.03 -0.1c0.27,-0.69 0.42,-1.43 0.42,-2.19l0 -3.56c0,-0.78 0.63,-1.42 1.42,-1.42 0.78,0 1.42,0.64 1.42,1.42l0 3.56c0,1.12 -0.21,2.22 -0.62,3.24l-0.05 0.12c-0.4,0.97 -0.98,1.87 -1.71,2.64 -0.77,0.8 -1.68,1.43 -2.67,1.86 -1,0.43 -2.07,0.66 -3.16,0.66l-17.05 0 6.19 6.48c0.54,0.57 0.52,1.47 -0.04,2.01 -0.57,0.54 -1.47,0.51 -2.01,-0.05l-8.41 -8.81c-0.29,-0.26 -0.47,-0.63 -0.47,-1.05 0,-0.42 0.18,-0.79 0.47,-1.05l8.41 -8.81z"/>
</svg>
