<svg viewBox="0 0 30 30" fill="none" xmlns="http://www.w3.org/2000/svg">
   <path id="exit" fill="#FFE55F" fill-rule="nonzero" d="M16.69 6.4c0.69,-0.69 1.81,-0.69 2.5,0 0.69,0.69 0.69,1.81 0,2.49l-4.34 4.35 13.39 0c0.97,0 1.76,0.79 1.76,1.76 0,0.97 -0.79,1.76 -1.76,1.76l-13.39 0 4.34 4.35c0.69,0.68 0.69,1.8 0,2.49 -0.69,0.69 -1.81,0.69 -2.5,0l-7.35 -7.35c-0.13,-0.14 -0.24,-0.29 -0.32,-0.45l-0.1 -0.22c-0.06,-0.18 -0.1,-0.38 -0.1,-0.58 0,-0.2 0.04,-0.4 0.1,-0.58l0.1 -0.22c0.08,-0.16 0.19,-0.31 0.32,-0.45l7.35 -7.35zm-6.1 20.07c0.97,0 1.76,0.79 1.76,1.77 0,0.97 -0.79,1.76 -1.76,1.76l-5.88 0c-0.62,0 -1.23,-0.13 -1.8,-0.36l-0.11 -0.05c-0.53,-0.24 -1.02,-0.56 -1.42,-0.97 -0.43,-0.43 -0.78,-0.95 -1.02,-1.53 -0.23,-0.57 -0.36,-1.18 -0.36,-1.8l0 -20.58c0,-0.62 0.13,-1.23 0.36,-1.8l0.05 -0.11c0.24,-0.53 0.56,-1.02 0.97,-1.42 0.43,-0.43 0.95,-0.78 1.53,-1.02 0.57,-0.23 1.18,-0.36 1.8,-0.36l5.88 0c0.97,0 1.76,0.79 1.76,1.76 0,0.98 -0.79,1.77 -1.76,1.77l-5.88 0c-0.17,0 -0.32,0.03 -0.45,0.09 -0.14,0.05 -0.27,0.14 -0.39,0.25 -0.1,0.11 -0.18,0.22 -0.23,0.33l-0.02 0.06c-0.06,0.13 -0.09,0.28 -0.09,0.45l0 20.58c0,0.17 0.03,0.32 0.09,0.45 0.05,0.14 0.14,0.27 0.25,0.39 0.11,0.1 0.22,0.18 0.33,0.23l0.06 0.02c0.13,0.06 0.28,0.09 0.45,0.09l5.88 0z"/>
</svg>
