<svg viewBox="0 0 30 30" fill="none" xmlns="http://www.w3.org/2000/svg">
  <path fill="#FFE55F" fill-rule="nonzero" d="M17.8 0c0.12,0 0.23,0.02 0.33,0.06l0.13 0.05c0.09,0.05 0.17,0.11 0.25,0.18l8.4 8.4c0.07,0.08 0.13,0.16 0.18,0.25l0.05 0.13c0.04,0.1 0.06,0.21 0.06,0.33l0 16.8c0,0.48 -0.09,0.95 -0.27,1.4l-0.02 0.05c-0.19,0.46 -0.47,0.88 -0.82,1.24 -0.36,0.35 -0.78,0.63 -1.24,0.82 -0.46,0.19 -0.95,0.29 -1.45,0.29l-16.8 0c-0.48,0 -0.95,-0.09 -1.4,-0.27l-0.06 -0.02c-0.45,-0.19 -0.87,-0.47 -1.23,-0.82 -0.33,-0.34 -0.6,-0.74 -0.79,-1.18l-0.03 -0.06c-0.19,-0.46 -0.29,-0.95 -0.29,-1.45l0 -22.4c0,-0.5 0.1,-0.99 0.29,-1.45 0.19,-0.46 0.47,-0.89 0.82,-1.24 0.36,-0.35 0.78,-0.63 1.23,-0.82 0.47,-0.19 0.96,-0.29 1.46,-0.29l11.2 0zm-1 2l-10.2 0c-0.24,0 -0.48,0.05 -0.69,0.13 -0.21,0.09 -0.41,0.23 -0.58,0.4 -0.18,0.17 -0.31,0.37 -0.4,0.58 -0.08,0.21 -0.13,0.45 -0.13,0.69l0 22.4c0,0.24 0.05,0.48 0.13,0.69l0.02 0.04c0.09,0.2 0.21,0.38 0.38,0.54 0.17,0.17 0.37,0.31 0.58,0.39l0.04 0.02c0.2,0.08 0.42,0.12 0.65,0.12l16.8 0c0.24,0 0.48,-0.05 0.69,-0.13 0.21,-0.09 0.41,-0.23 0.58,-0.4 0.17,-0.17 0.31,-0.37 0.4,-0.58l0.01 -0.04c0.08,-0.2 0.12,-0.42 0.12,-0.65l0 -15.8 -7.4 0c-0.55,0 -1,-0.45 -1,-1l0 -7.4zm6.99 6.4l-4.99 -4.99 0 4.99 4.99 0zm-3.19 12.6c0.55,0 1,0.45 1,1 0,0.55 -0.45,1 -1,1l-11.2 0c-0.55,0 -1,-0.45 -1,-1 0,-0.55 0.45,-1 1,-1l11.2 0zm0 -5.6c0.55,0 1,0.45 1,1 0,0.55 -0.45,1 -1,1l-11.2 0c-0.55,0 -1,-0.45 -1,-1 0,-0.55 0.45,-1 1,-1l11.2 0zm-8.4 -5.6c0.55,0 1,0.45 1,1 0,0.55 -0.45,1 -1,1l-2.8 0c-0.55,0 -1,-0.45 -1,-1 0,-0.55 0.45,-1 1,-1l2.8 0z"/>
</svg>
