<svg viewBox="0 0 30 30" fill="none" xmlns="http://www.w3.org/2000/svg">
   <path id="github" fill-rule="nonzero" d="M15 0c-8.29,0 -15,6.88 -15,15.38 0,6.8 4.29,12.55 10.26,14.59 0.75,0.14 1.03,-0.33 1.03,-0.73 0,-0.37 -0.02,-1.58 -0.02,-2.86 -3.77,0.71 -4.74,-0.95 -5.04,-1.81 -0.17,-0.44 -0.9,-1.81 -1.54,-2.17 -0.53,-0.29 -1.28,-1 -0.02,-1.02 1.18,-0.02 2.02,1.11 2.31,1.57 1.35,2.33 3.5,1.68 4.36,1.27 0.13,-1 0.53,-1.67 0.96,-2.05 -3.34,-0.39 -6.83,-1.72 -6.83,-7.6 0,-1.67 0.59,-3.05 1.54,-4.13 -0.15,-0.39 -0.67,-1.96 0.15,-4.08 0,0 1.26,-0.4 4.13,1.58 1.2,-0.35 2.47,-0.52 3.75,-0.52 1.27,0 2.55,0.17 3.75,0.52 2.87,-2 4.12,-1.58 4.12,-1.58 0.83,2.12 0.3,3.69 0.15,4.08 0.96,1.08 1.54,2.44 1.54,4.13 0,5.9 -3.51,7.21 -6.84,7.6 0.54,0.48 1.01,1.4 1.01,2.84 0,2.06 -0.02,3.71 -0.02,4.23 0,0.4 0.28,0.88 1.03,0.73 2.98,-1.03 5.57,-2.99 7.4,-5.61 1.83,-2.62 2.82,-5.76 2.82,-8.98 0,-8.5 -6.71,-15.38 -15,-15.38z"/>
</svg>
