<svg viewBox="0 0 30 30" fill="none" xmlns="http://www.w3.org/2000/svg">
<path d="M30 28V25.2222C29.9992 23.9913 29.6237 22.7955 28.9326 21.8227C28.2416 20.8498 27.274 20.155 26.1818 19.8472M22.3636 28V25.2222C22.3636 23.7488 21.8273 22.3357 20.8725 21.2939C19.9178 20.252 18.6229 19.6667 17.2727 19.6667H7.09091C5.74072 19.6667 4.44582 20.252 3.49109 21.2939C2.53636 22.3357 2 23.7488 2 25.2222V28M21.0909 3.18056C22.186 3.48653 23.1566 4.18153 23.8497 5.15599C24.5429 6.13044 24.9191 7.32893 24.9191 8.5625C24.9191 9.79607 24.5429 10.9946 23.8497 11.969C23.1566 12.9435 22.186 13.6385 21.0909 13.9444M17.2727 8.55556C17.2727 11.6238 14.9934 14.1111 12.1818 14.1111C9.37019 14.1111 7.09091 11.6238 7.09091 8.55556C7.09091 5.48731 9.37019 3 12.1818 3C14.9934 3 17.2727 5.48731 17.2727 8.55556Z" stroke-width="2" stroke-linecap="round" stroke-linejoin="round"/>
</svg>
