<svg viewBox="0 0 30 30" xmlns="http://www.w3.org/2000/svg">
  <path fill="#FFE55F" fill-rule="nonzero" d="M30 27.5c0,0.55 -0.45,1 -1,1 -0.55,0 -1,-0.45 -1,-1l0 -2.78c0,-0.51 -0.08,-1.01 -0.23,-1.5 -0.15,-0.47 -0.37,-0.92 -0.65,-1.32 -0.28,-0.4 -0.62,-0.74 -0.99,-1.01 -0.37,-0.26 -0.78,-0.46 -1.22,-0.58 -0.53,-0.15 -0.84,-0.7 -0.69,-1.23 0.15,-0.53 0.7,-0.84 1.23,-0.69 0.66,0.18 1.28,0.48 1.84,0.89 0.55,0.39 1.05,0.89 1.45,1.46 0.41,0.58 0.73,1.22 0.94,1.89 0.21,0.66 0.32,1.37 0.32,2.09l0 2.78zm-7.64 0c0,0.55 -0.44,1 -1,1 -0.55,0 -1,-0.45 -1,-1l0 -2.78c0,-0.62 -0.11,-1.22 -0.32,-1.77 -0.21,-0.55 -0.51,-1.06 -0.9,-1.48 -0.38,-0.42 -0.84,-0.75 -1.33,-0.97 -0.48,-0.22 -1,-0.33 -1.54,-0.33l-10.18 0c-0.53,0 -1.05,0.11 -1.54,0.33 -0.49,0.22 -0.94,0.55 -1.32,0.97 -0.39,0.42 -0.7,0.93 -0.91,1.48 -0.21,0.55 -0.32,1.15 -0.32,1.77l0 2.78c0,0.55 -0.45,1 -1,1 -0.55,0 -1,-0.45 -1,-1l0 -2.78c0,-0.85 0.16,-1.69 0.45,-2.48 0.3,-0.78 0.74,-1.5 1.31,-2.12 0.57,-0.62 1.24,-1.11 1.97,-1.44 0.75,-0.34 1.55,-0.51 2.36,-0.51l10.18 0c0.82,0 1.62,0.17 2.36,0.51 0.73,0.33 1.4,0.82 1.98,1.44 0.56,0.62 1,1.34 1.3,2.12 0.3,0.79 0.45,1.63 0.45,2.48l0 2.78zm-2.54 -23.86c-0.53,-0.15 -0.84,-0.69 -0.69,-1.22 0.15,-0.54 0.7,-0.85 1.23,-0.7 0.66,0.19 1.29,0.49 1.84,0.88l0.06 0.05c0.53,0.39 1.01,0.87 1.4,1.43 0.41,0.57 0.73,1.21 0.94,1.89 0.21,0.67 0.32,1.38 0.32,2.09 0,0.72 -0.11,1.43 -0.32,2.1 -0.21,0.67 -0.53,1.31 -0.94,1.89 -0.41,0.57 -0.9,1.07 -1.46,1.47 -0.56,0.4 -1.18,0.7 -1.84,0.89 -0.53,0.14 -1.08,-0.17 -1.23,-0.7 -0.15,-0.53 0.16,-1.08 0.69,-1.23 0.44,-0.12 0.85,-0.32 1.22,-0.59 0.38,-0.26 0.72,-0.6 1,-1 0.28,-0.4 0.5,-0.85 0.65,-1.32 0.15,-0.48 0.23,-0.99 0.23,-1.51 0,-0.52 -0.08,-1.02 -0.23,-1.5 -0.15,-0.48 -0.37,-0.93 -0.65,-1.33 -0.27,-0.38 -0.59,-0.7 -0.95,-0.97l-0.05 -0.03c-0.38,-0.27 -0.79,-0.47 -1.22,-0.59zm-2.55 4.42c0,1.79 -0.67,3.42 -1.76,4.6l-0.05 0.05c-1.1,1.18 -2.61,1.9 -4.28,1.9 -1.69,0 -3.23,-0.75 -4.33,-1.95 -1.09,-1.19 -1.76,-2.82 -1.76,-4.6 0,-1.79 0.67,-3.42 1.76,-4.6 1.1,-1.21 2.64,-1.96 4.33,-1.96 1.7,0 3.23,0.75 4.34,1.95 1.08,1.19 1.75,2.82 1.75,4.61zm-3.22 3.25c0.75,-0.83 1.22,-1.98 1.22,-3.25 0,-1.28 -0.47,-2.44 -1.22,-3.26 -0.74,-0.8 -1.75,-1.3 -2.87,-1.3 -1.11,0 -2.13,0.5 -2.86,1.3 -0.76,0.83 -1.23,1.98 -1.23,3.26 0,1.28 0.47,2.43 1.23,3.25 0.73,0.8 1.75,1.3 2.86,1.3 1.1,0 2.09,-0.48 2.82,-1.25l0.05 -0.05z"/>
</svg>
