<svg viewBox="0 0 30 30" fill="none" xmlns="http://www.w3.org/2000/svg">
  <path fill="#FFE55F" fill-rule="nonzero" d="M10.71 2.45l-8.26 0 0 8.26 8.26 0 0 -8.26zm-9.49 -2.45l10.72 0c0.68,0 1.22,0.55 1.22,1.22l0 10.72c0,0.68 -0.54,1.22 -1.22,1.22l-10.72 0c-0.67,0 -1.22,-0.54 -1.22,-1.22l0 -10.72c0,-0.67 0.55,-1.22 1.22,-1.22zm26.33 2.45l-8.26 0 0 8.26 8.26 0 0 -8.26zm-9.49 -2.45l10.72 0c0.67,0 1.22,0.55 1.22,1.22l0 10.72c0,0.68 -0.55,1.22 -1.22,1.22l-10.72 0c-0.68,0 -1.22,-0.54 -1.22,-1.22l0 -10.72c0,-0.67 0.54,-1.22 1.22,-1.22zm-7.35 19.29l-8.26 0 0 8.26 8.26 0 0 -8.26zm-9.49 -2.45l10.72 0c0.68,0 1.22,0.55 1.22,1.22l0 10.72c0,0.67 -0.54,1.22 -1.22,1.22l-10.72 0c-0.67,0 -1.22,-0.55 -1.22,-1.22l0 -10.72c0,-0.67 0.55,-1.22 1.22,-1.22zm26.33 2.45l-8.26 0 0 8.26 8.26 0 0 -8.26zm-9.49 -2.45l10.72 0c0.67,0 1.22,0.55 1.22,1.22l0 10.72c0,0.67 -0.55,1.22 -1.22,1.22l-10.72 0c-0.68,0 -1.22,-0.55 -1.22,-1.22l0 -10.72c0,-0.67 0.54,-1.22 1.22,-1.22z"/>
</svg>
