<svg viewBox="0 0 30 30" fill="none" xmlns="http://www.w3.org/2000/svg">
   <path id="message" fill="#FFE55F" fill-rule="nonzero" d="M0 9.46c0,-2.32 0,-3.48 0.68,-4.57 0.29,-0.46 0.67,-0.88 1.1,-1.23 0.43,-0.35 0.92,-0.64 1.45,-0.87 0.62,-0.25 1.31,-0.38 2.21,-0.44 0.83,-0.06 1.8,-0.06 3.1,-0.06l12.92 0c2.73,0 4.1,0 5.31,0.5l0.06 0.03c0.51,0.22 0.98,0.5 1.39,0.84 0.43,0.35 0.81,0.77 1.1,1.23 0.68,1.09 0.68,2.25 0.68,4.57l0 6.75c0,2.32 0,3.48 -0.68,4.57 -0.29,0.46 -0.67,0.88 -1.1,1.23 -0.43,0.35 -0.92,0.64 -1.45,0.86 -0.63,0.26 -1.31,0.39 -2.2,0.45l-0.03 0c-0.83,0.06 -1.79,0.06 -3.08,0.06l-10.02 0c-0.91,0 -1.36,0 -1.71,0.05 -0.15,0.03 -0.31,0.07 -0.47,0.11 -0.17,0.05 -0.32,0.1 -0.45,0.15 -0.32,0.14 -0.67,0.36 -1.34,0.8 -0.52,0.49 -2.92,1.9 -3.69,2.4 -0.35,0.23 -0.61,0.4 -0.83,0.52 -0.37,0.2 -0.68,0.3 -1.02,0.3 -0.26,0 -0.52,-0.05 -0.75,-0.15 -0.26,-0.1 -0.49,-0.25 -0.68,-0.44 -0.29,-0.29 -0.42,-0.63 -0.47,-1.08 -0.03,-0.27 -0.03,-0.54 -0.03,-0.9l0 -15.68zm2.63 -3.35c-0.32,0.51 -0.32,1.46 -0.32,3.35l0 15.64 3.89 -2.54c0.81,-0.52 1.22,-0.78 1.72,-0.99 0.25,-0.1 0.48,-0.18 0.7,-0.25 0.23,-0.06 0.47,-0.12 0.73,-0.16 0.56,-0.09 1.07,-0.1 2.09,-0.1l10.02 0c1.27,0 2.23,0 2.93,-0.04l0.03 0c0.64,-0.04 1.1,-0.12 1.46,-0.27 0.33,-0.14 0.63,-0.32 0.89,-0.52 0.24,-0.2 0.45,-0.43 0.6,-0.67 0.32,-0.51 0.32,-1.46 0.32,-3.35l0 -6.75c0,-1.89 0,-2.84 -0.32,-3.35 -0.15,-0.24 -0.36,-0.47 -0.6,-0.67 -0.25,-0.19 -0.53,-0.36 -0.84,-0.5l-0.05 -0.02c-0.77,-0.31 -1.98,-0.31 -4.42,-0.31l-12.92 0c-1.29,0 -2.26,0 -2.96,0.04 -0.64,0.04 -1.1,0.12 -1.46,0.27 -0.34,0.14 -0.63,0.32 -0.89,0.52 -0.24,0.2 -0.45,0.43 -0.6,0.67z"/>
</svg>
