<svg viewBox="0 0 30 30" fill="none" xmlns="http://www.w3.org/2000/svg">
  <path id="search" fill="#FFE55F" fill-rule="nonzero" d="M30 27.4l-8.95 -8.95c1.44,-1.98 2.22,-4.37 2.22,-6.82 0,-6.41 -5.22,-11.63 -11.64,-11.63 -6.41,0 -11.63,5.22 -11.63,11.63 0,6.42 5.22,11.64 11.63,11.64 2.45,0 4.84,-0.78 6.82,-2.22l8.95 8.95 2.6 -2.6zm-18.37 -7.81c-1.57,0 -3.11,-0.46 -4.42,-1.34 -1.31,-0.87 -2.33,-2.12 -2.93,-3.57 -0.6,-1.46 -0.76,-3.06 -0.45,-4.6 0.3,-1.54 1.06,-2.96 2.17,-4.08 1.12,-1.11 2.54,-1.87 4.08,-2.17 1.54,-0.31 3.14,-0.15 4.6,0.45 1.45,0.6 2.7,1.62 3.57,2.93 0.88,1.31 1.34,2.85 1.34,4.42 0,2.11 -0.84,4.14 -2.33,5.63 -1.49,1.49 -3.52,2.33 -5.63,2.33z"/>
</svg>
