<svg viewBox="0 0 30 30" fill="none" xmlns="http://www.w3.org/2000/svg">
<path d="M11.4271 30L10.8301 25.2C10.5067 25.075 10.2022 24.925 9.91663 24.75C9.63006 24.575 9.34996 24.3875 9.07633 24.1875L4.63603 26.0625L0.531555 18.9375L4.37484 16.0125C4.34996 15.8375 4.33753 15.6685 4.33753 15.5055V14.493C4.33753 14.331 4.34996 14.1625 4.37484 13.9875L0.531555 11.0625L4.63603 3.9375L9.07633 5.8125C9.34996 5.6125 9.63603 5.425 9.93454 5.25C10.233 5.075 10.5316 4.925 10.8301 4.8L11.4271 0H19.636L20.233 4.8C20.5564 4.925 20.8614 5.075 21.148 5.25C21.4335 5.425 21.7132 5.6125 21.9868 5.8125L26.4271 3.9375L30.5316 11.0625L26.6883 13.9875C26.7132 14.1625 26.7256 14.331 26.7256 14.493V15.5055C26.7256 15.6685 26.7007 15.8375 26.651 16.0125L30.4942 18.9375L26.3898 26.0625L21.9868 24.1875C21.7132 24.3875 21.4271 24.575 21.1286 24.75C20.8301 24.925 20.5316 25.075 20.233 25.2L19.636 30H11.4271ZM15.6062 20.25C17.049 20.25 18.2803 19.7375 19.3002 18.7125C20.3201 17.6875 20.8301 16.45 20.8301 15C20.8301 13.55 20.3201 12.3125 19.3002 11.2875C18.2803 10.2625 17.049 9.75 15.6062 9.75C14.1385 9.75 12.9007 10.2625 11.8928 11.2875C10.8858 12.3125 10.3823 13.55 10.3823 15C10.3823 16.45 10.8858 17.6875 11.8928 18.7125C12.9007 19.7375 14.1385 20.25 15.6062 20.25Z" />
</svg>
