<svg viewBox="0 0 30 30" fill="none" xmlns="http://www.w3.org/2000/svg">
  <path id="settings" fill="#FFE55F" fill-rule="nonzero" d="M10.9 30l-0.6 -4.8c-0.32,-0.13 -0.63,-0.28 -0.91,-0.45 -0.29,-0.17 -0.57,-0.36 -0.84,-0.56l-4.45 1.87 -4.1 -7.12 3.84 -2.93c-0.02,-0.17 -0.03,-0.34 -0.03,-0.5l0 -1.02c0,-0.16 0.01,-0.33 0.03,-0.5l-3.84 -2.93 4.1 -7.12 4.45 1.87c0.27,-0.2 0.55,-0.39 0.85,-0.56 0.3,-0.17 0.6,-0.32 0.9,-0.45l0.6 -4.8 8.2 0 0.6 4.8c0.32,0.13 0.63,0.28 0.92,0.45 0.28,0.17 0.56,0.36 0.83,0.56l4.45 -1.87 4.1 7.12 -3.84 2.93c0.02,0.17 0.03,0.34 0.03,0.5l0 1.02c0,0.16 -0.02,0.33 -0.07,0.5l3.84 2.93 -4.1 7.12 -4.41 -1.87c-0.27,0.2 -0.55,0.39 -0.85,0.56 -0.3,0.17 -0.6,0.32 -0.9,0.45l-0.6 4.8 -8.2 0zm4.17 -9.75c1.45,0 2.68,-0.51 3.7,-1.54 1.02,-1.02 1.53,-2.26 1.53,-3.71 0,-1.45 -0.51,-2.69 -1.53,-3.71 -1.02,-1.03 -2.25,-1.54 -3.7,-1.54 -1.46,0 -2.7,0.51 -3.71,1.54 -1.01,1.02 -1.51,2.26 -1.51,3.71 0,1.45 0.5,2.69 1.51,3.71 1.01,1.03 2.25,1.54 3.71,1.54z"/>
</svg>
