<svg xmlns="http://www.w3.org/2000/svg" viewBox="0 0 30 30">
  <path fill-rule="nonzero" d="M30 15c0,3.98 -1.58,7.79 -4.39,10.61 -2.82,2.81 -6.63,4.39 -10.61,4.39 -3.98,0 -7.79,-1.58 -10.61,-4.39 -2.81,-2.82 -4.39,-6.63 -4.39,-10.61 0,-3.98 1.58,-7.79 4.39,-10.61 2.82,-2.81 6.63,-4.39 10.61,-4.39 3.98,0 7.79,1.58 10.61,4.39 2.81,2.82 4.39,6.63 4.39,10.61zm-14.46 -3.93c-1.46,0.61 -4.38,1.87 -8.75,3.77 -0.71,0.28 -1.08,0.56 -1.12,0.83 -0.05,0.46 0.52,0.64 1.3,0.88l0.33 0.11c0.76,0.25 1.79,0.54 2.33,0.55 0.48,0.01 1.03,-0.19 1.62,-0.6 4.09,-2.76 6.2,-4.15 6.33,-4.18 0.09,-0.03 0.23,-0.05 0.31,0.03 0.09,0.07 0.08,0.22 0.07,0.26 -0.06,0.24 -2.3,2.33 -3.46,3.41 -0.36,0.33 -0.62,0.57 -0.67,0.63 -0.12,0.12 -0.23,0.23 -0.35,0.35 -0.72,0.68 -1.25,1.2 0.02,2.04 0.62,0.4 1.11,0.73 1.6,1.07 0.53,0.36 1.06,0.72 1.75,1.18 0.18,0.11 0.35,0.23 0.51,0.35 0.62,0.44 1.18,0.84 1.87,0.77 0.4,-0.04 0.81,-0.41 1.02,-1.54 0.5,-2.65 1.48,-8.41 1.7,-10.78 0.02,-0.19 0.01,-0.39 -0.02,-0.59 -0.02,-0.16 -0.1,-0.3 -0.22,-0.41 -0.17,-0.11 -0.37,-0.17 -0.58,-0.17 -0.56,0.01 -1.43,0.31 -5.59,2.04z"/>
</svg>
