<svg viewBox="0 0 31 30" xmlns="http://www.w3.org/2000/svg">
<path d="M21.0431 19.6286C15.1714 19.6286 10.3714 14.8714 10.3714 8.9569C10.3714 6.77118 11.0571 4.71404 12.1714 3C6.90024 4.37143 3 9.17143 3 14.8717C3 21.6005 8.44261 27.0431 15.1714 27.0431C20.8717 27.0431 25.6717 23.1431 27 17.8291C25.2857 18.9862 23.2714 19.6291 21.0431 19.6291V19.6286ZM15.1714 25.3288C9.42857 25.3288 4.71429 20.6145 4.71429 14.8717C4.71429 11.486 6.34286 8.40049 8.95714 6.47167C8.78571 7.28596 8.7 8.1431 8.7 9.00025C8.7 15.8143 14.2714 21.3862 21.086 21.3862C21.9431 21.3862 22.8002 21.3005 23.6145 21.1291C21.686 23.7005 18.6 25.3291 15.1714 25.3291V25.3288Z"/>
</svg>
