<svg viewBox="0 0 31 30" fill="none" xmlns="http://www.w3.org/2000/svg">
<path fill-rule="evenodd" clip-rule="evenodd" d="M15.0421 27.1875C17.1817 27.1906 19.284 26.6279 21.1359 25.5562V21.5625C21.1359 20.4436 20.6914 19.3706 19.9002 18.5794C19.1091 17.7882 18.036 17.3438 16.9171 17.3438H13.1671C12.0482 17.3438 10.9752 17.7882 10.184 18.5794C9.39284 19.3706 8.94836 20.4436 8.94836 21.5625V25.5562C10.8002 26.6279 12.9026 27.1906 15.0421 27.1875ZM23.9484 21.5625V23.3194C25.5697 21.5837 26.6485 19.4121 27.0522 17.0716C27.456 14.731 27.167 12.3235 26.2209 10.1449C25.2747 7.96638 23.7126 6.11177 21.7266 4.80908C19.7406 3.50639 17.4172 2.81239 15.0421 2.81239C12.667 2.81239 10.3436 3.50639 8.35761 4.80908C6.3716 6.11177 4.80951 7.96638 3.86336 10.1449C2.91722 12.3235 2.62825 14.731 3.03198 17.0716C3.43571 19.4121 4.51454 21.5837 6.13586 23.3194V21.5625C6.13585 20.1129 6.58364 18.6987 7.41799 17.5133C8.25235 16.3279 9.43252 15.4291 10.7971 14.94C10.0891 14.1256 9.63026 13.1248 9.47536 12.0568C9.32047 10.9889 9.47603 9.89889 9.92351 8.91691C10.371 7.93493 11.0915 7.10239 11.9991 6.5186C12.9066 5.9348 13.963 5.62439 15.0421 5.62439C16.1212 5.62439 17.1776 5.9348 18.0852 6.5186C18.9928 7.10239 19.7132 7.93493 20.1607 8.91691C20.6082 9.89889 20.7638 10.9889 20.6089 12.0568C20.454 13.1248 19.9951 14.1256 19.2871 14.94C20.6517 15.4291 21.8319 16.3279 22.6662 17.5133C23.5006 18.6987 23.9484 20.1129 23.9484 21.5625ZM15.0421 30C19.0204 30 22.8357 28.4196 25.6487 25.6066C28.4618 22.7936 30.0421 18.9782 30.0421 15C30.0421 11.0218 28.4618 7.20644 25.6487 4.3934C22.8357 1.58035 19.0204 0 15.0421 0C11.0639 0 7.24856 1.58035 4.43551 4.3934C1.62247 7.20644 0.0421143 11.0218 0.0421143 15C0.0421143 18.9782 1.62247 22.7936 4.43551 25.6066C7.24856 28.4196 11.0639 30 15.0421 30ZM17.8546 11.25C17.8546 11.9959 17.5583 12.7113 17.0309 13.2387C16.5034 13.7662 15.788 14.0625 15.0421 14.0625C14.2962 14.0625 13.5808 13.7662 13.0534 13.2387C12.5259 12.7113 12.2296 11.9959 12.2296 11.25C12.2296 10.5041 12.5259 9.78871 13.0534 9.26126C13.5808 8.73382 14.2962 8.4375 15.0421 8.4375C15.788 8.4375 16.5034 8.73382 17.0309 9.26126C17.5583 9.78871 17.8546 10.5041 17.8546 11.25Z" />
</svg>
