<svg xmlns="http://www.w3.org/2000/svg" viewBox="0 0 30 30">
  <path fill-rule="nonzero" d="M15 0c-8.29,0 -15,6.72 -15,15 0,8.28 6.71,15 15,15 8.28,0 15,-6.72 15,-15 0,-8.28 -6.72,-15 -15,-15zm5.77 16.92c0,0 1.32,1.31 1.65,1.92 0.01,0.01 0.02,0.03 0.02,0.03 0.13,0.22 0.16,0.4 0.1,0.53 -0.11,0.21 -0.49,0.32 -0.62,0.33l-2.34 0c-0.16,0 -0.5,-0.04 -0.92,-0.33 -0.31,-0.22 -0.63,-0.58 -0.93,-0.94 -0.46,-0.53 -0.85,-0.98 -1.25,-0.98 -0.05,0 -0.1,0.01 -0.14,0.02 -0.3,0.1 -0.69,0.53 -0.69,1.67 0,0.35 -0.28,0.56 -0.48,0.56l-1.07 0c-0.37,0 -2.27,-0.13 -3.96,-1.91 -2.06,-2.18 -3.92,-6.55 -3.94,-6.59 -0.12,-0.28 0.13,-0.44 0.39,-0.44l2.37 0c0.31,0 0.42,0.2 0.49,0.37 0.08,0.19 0.39,0.98 0.9,1.87 0.82,1.45 1.33,2.04 1.73,2.04 0.08,-0.01 0.15,-0.03 0.22,-0.06 0.53,-0.29 0.43,-2.18 0.41,-2.57 0,-0.07 -0.01,-0.84 -0.28,-1.21 -0.19,-0.27 -0.52,-0.37 -0.72,-0.41 0.08,-0.11 0.19,-0.2 0.31,-0.26 0.36,-0.18 1.02,-0.21 1.67,-0.21l0.36 0c0.7,0.01 0.88,0.06 1.14,0.12 0.51,0.13 0.52,0.46 0.48,1.6 -0.02,0.32 -0.03,0.69 -0.03,1.12 0,0.09 -0.01,0.19 -0.01,0.3 -0.01,0.58 -0.03,1.23 0.38,1.51 0.05,0.03 0.11,0.05 0.18,0.05 0.14,0 0.57,0 1.73,-1.99 0.35,-0.64 0.66,-1.31 0.93,-1.99 0.02,-0.04 0.09,-0.17 0.17,-0.22 0.06,-0.03 0.13,-0.04 0.19,-0.04l2.79 0c0.3,0 0.51,0.04 0.54,0.16 0.07,0.19 -0.01,0.75 -1.28,2.47l-0.56 0.75c-1.16,1.51 -1.16,1.59 0.07,2.73z"/>
</svg>
