<svg viewBox="0 0 344 108" xmlns="http://www.w3.org/2000/svg">
<path d="M26.5859 85.744C24.5379 85.744 22.4259 85.136 20.2499 83.92C18.1379 82.704 16.0579 80.752 14.0099 78.064C12.4099 75.888 11.2259 73.36 10.4579 70.48C9.68988 67.664 9.30588 64.88 9.30588 62.128C9.30588 60.72 9.40188 59.344 9.59388 58C9.78588 56.528 10.1699 54.864 10.7459 53.008C11.3859 51.152 12.0259 49.616 12.6659 48.4C12.8579 48.016 13.1459 47.6 13.5299 47.152C13.9139 46.704 14.2019 46.48 14.3939 46.48C14.4579 46.48 14.4899 46.512 14.4899 46.576C14.4899 46.64 14.2019 47.312 13.6259 48.592C12.0259 51.792 11.2259 55.344 11.2259 59.248C11.2259 62.768 11.7699 66.224 12.8579 69.616C14.0099 72.944 15.4819 75.824 17.2739 78.256C19.0019 80.56 20.6979 82.224 22.3619 83.248C24.0259 84.272 25.6579 84.784 27.2579 84.784C29.5619 84.784 31.7059 83.824 33.6899 81.904C35.6739 80.048 37.3379 77.648 38.6819 74.704C39.6419 72.72 40.4419 70.128 41.0819 66.928C41.7219 63.664 42.2339 60.016 42.6179 55.984C43.0019 51.952 43.1619 47.824 43.0979 43.6V42.736C40.8579 43.696 38.6819 44.848 36.5699 46.192C34.5219 47.472 32.5379 48.912 30.6179 50.512C30.4259 50.704 30.2339 50.8 30.0419 50.8C29.6579 50.8 29.3379 50.576 29.0819 50.128C28.8259 49.616 28.6979 49.136 28.6979 48.688C28.6979 47.92 28.9219 47.408 29.3699 47.152C31.5459 45.488 33.7539 44.112 35.9939 43.024C38.2979 41.936 40.6659 41.072 43.0979 40.432C43.0339 36.272 42.6499 32.208 41.9459 28.24C41.3059 24.272 40.4419 20.592 39.3539 17.2C38.3299 13.808 37.1779 10.928 35.8979 8.56L35.8019 8.464C31.5139 8.528 27.3539 8.976 23.3219 9.808C19.3539 10.576 15.8019 11.76 12.6659 13.36C9.52988 14.896 7.03388 16.88 5.17788 19.312C3.38588 21.68 2.48988 24.528 2.48988 27.856C2.48988 29.264 2.61788 30.576 2.87388 31.792C3.19388 32.944 3.70588 33.936 4.40988 34.768C4.79388 35.152 4.98588 35.504 4.98588 35.824C4.98588 36.208 4.79388 36.4 4.40988 36.4C4.02588 36.4 3.64188 36.176 3.25788 35.728C2.16988 34.448 1.46588 33.04 1.14588 31.504C0.761878 29.968 0.569878 28.432 0.569878 26.896C0.569878 23.76 1.27388 21.008 2.68188 18.64C4.15388 16.272 6.07388 14.256 8.44188 12.592C10.8739 10.864 13.5299 9.488 16.4099 8.464C19.2899 7.376 22.2019 6.54399 25.1459 5.96799C28.1539 5.39199 30.9059 5.07199 33.4019 5.008C32.5059 3.984 31.6739 3.376 30.9059 3.184C30.2019 2.928 29.5619 2.832 28.9859 2.89599C28.4739 2.89599 28.0259 2.768 27.6419 2.512C27.3859 2.32 27.2579 2.096 27.2579 1.84C27.2579 1.2 28.0899 0.879997 29.7539 0.879997C30.9699 0.879997 32.3459 1.2 33.8819 1.84C35.4819 2.416 36.9219 3.472 38.2019 5.008C41.1459 5.07199 44.4419 5.35999 48.0899 5.872C51.7379 6.384 55.3219 7.216 58.8419 8.368C62.3619 9.52 65.4339 11.088 68.0579 13.072C70.6819 14.992 72.4099 17.456 73.2419 20.464C73.3059 20.656 73.3379 20.944 73.3379 21.328C73.3379 21.904 73.1779 22.192 72.8579 22.192C72.5379 22.192 72.2179 21.808 71.8979 21.04C71.1939 18.48 69.3059 16.304 66.2339 14.512C63.1619 12.72 59.3539 11.312 54.8099 10.288C50.3299 9.2 45.5619 8.592 40.5059 8.464C41.8499 11.024 42.9059 14.032 43.6739 17.488C44.5059 20.944 45.1139 24.592 45.4979 28.432C45.9459 32.208 46.2339 35.952 46.3619 39.664C48.2179 39.28 50.1059 39.024 52.0259 38.896C53.9459 38.704 55.8979 38.608 57.8819 38.608C58.3939 38.608 58.8419 38.704 59.2259 38.896C59.6099 39.024 59.8019 39.152 59.8019 39.28C59.8019 39.664 59.0019 39.856 57.4019 39.856C53.6259 39.856 49.9459 40.4 46.3619 41.488C46.3619 42.128 46.3619 42.8 46.3619 43.504C46.4259 44.208 46.4579 44.88 46.4579 45.52C46.4579 48.464 46.3619 51.152 46.1699 53.584C46.0419 55.952 45.9139 57.872 45.7859 59.344C45.2739 64.08 44.0899 68.464 42.2339 72.496C40.3779 76.528 38.0739 79.728 35.3219 82.096C32.6339 84.528 29.7219 85.744 26.5859 85.744ZM64.0356 69.232C63.0116 69.232 62.1476 68.688 61.4436 67.6C60.9316 66.704 60.6756 65.648 60.6756 64.432C60.6756 62.704 61.0596 60.752 61.8276 58.576C62.5956 56.4 63.6196 54.288 64.8996 52.24C66.2436 50.192 67.7156 48.464 69.3156 47.056C70.9796 45.584 72.6756 44.72 74.4036 44.464C75.0436 44.4 75.8116 44.56 76.7076 44.944C77.6036 45.328 78.3396 45.808 78.9156 46.384C79.0436 45.744 79.1396 45.136 79.2036 44.56C79.2676 43.92 79.2996 43.312 79.2996 42.736C79.2996 40.944 79.0116 39.344 78.4356 37.936C77.8596 36.528 76.8356 35.6 75.3636 35.152C74.7876 34.96 74.1476 34.864 73.4436 34.864C73.0596 34.864 72.6436 34.928 72.1956 35.056C71.7476 35.12 71.2676 35.312 70.7556 35.632C70.2436 35.888 69.7316 36.304 69.2196 36.88C68.7076 37.392 68.3556 37.872 68.1636 38.32C68.0356 38.576 67.7156 39.152 67.2036 40.048C66.6916 40.88 66.2756 41.264 65.9556 41.2C65.6996 41.136 65.5716 40.912 65.5716 40.528C65.5716 40.336 65.6356 40.048 65.7636 39.664C66.1476 38.448 66.8836 37.424 67.9716 36.592C69.0596 35.696 70.2436 34.992 71.5236 34.48C72.8036 33.904 73.8596 33.584 74.6916 33.52C74.8836 33.52 75.0756 33.52 75.2676 33.52C75.4596 33.456 75.6196 33.424 75.7476 33.424C76.7716 33.424 77.6996 33.584 78.5316 33.904C79.4276 34.16 80.1316 34.512 80.6436 34.96C81.4756 35.6 82.1476 36.432 82.6596 37.456C83.1716 38.416 83.4276 39.632 83.4276 41.104C83.4276 41.552 83.3956 42.032 83.3316 42.544C83.2676 43.056 83.1716 43.568 83.0436 44.08C82.8516 45.104 82.5956 46.416 82.2756 48.016C82.0196 49.552 81.7316 51.152 81.4116 52.816C81.1556 54.48 80.9316 56.016 80.7396 57.424C80.6116 58.768 80.5476 59.728 80.5476 60.304C80.5476 60.944 80.7396 61.68 81.1236 62.512C81.5716 63.28 82.1476 63.664 82.8516 63.664C83.2356 63.664 83.6516 63.472 84.0996 63.088C84.6116 62.704 85.1236 62.064 85.6356 61.168C85.9556 60.656 86.2436 60.4 86.4996 60.4C86.8196 60.4 86.9796 60.592 86.9796 60.976C86.9796 61.488 86.7236 62.096 86.2116 62.8C84.9956 64.528 83.4596 65.392 81.6036 65.392C80.0676 65.392 78.9796 64.752 78.3396 63.472C77.2516 61.36 76.7076 59.472 76.7076 57.808C76.7076 56.08 76.6756 54.896 76.6116 54.256C76.2916 55.024 75.6836 56.24 74.7876 57.904C73.8916 59.504 72.8356 61.2 71.6196 62.992C70.4036 64.72 69.1236 66.192 67.7796 67.408C66.4356 68.624 65.1876 69.232 64.0356 69.232ZM65.5716 66.352C66.2116 66.352 66.9476 66.032 67.7796 65.392C68.6756 64.752 69.6036 63.76 70.5636 62.416C71.8436 60.56 73.0276 58.48 74.1156 56.176C75.2036 53.872 76.1956 51.632 77.0916 49.456C76.3236 47.6 75.3636 46.672 74.2116 46.672C73.1876 46.672 72.0996 47.216 70.9476 48.304C69.7956 49.392 68.7076 50.64 67.6836 52.048C66.4036 53.968 65.3796 55.888 64.6116 57.808C63.9076 59.728 63.5556 61.36 63.5556 62.704C63.5556 65.136 64.2276 66.352 65.5716 66.352ZM108.776 71.248C107.944 71.248 107.208 70.736 106.568 69.712C105.928 68.624 105.608 66.576 105.608 63.568C105.608 61.2 105.8 58.608 106.184 55.792C106.568 52.912 106.984 50.064 107.432 47.248C107.944 44.432 108.392 41.936 108.776 39.76C109.16 37.52 109.352 35.888 109.352 34.864C109.352 33.072 108.808 32.176 107.72 32.176C106.696 32.176 105.64 32.688 104.552 33.712C103.528 34.736 102.536 35.984 101.576 37.456C100.68 38.928 99.8801 40.368 99.1761 41.776C98.5361 43.12 98.1201 44.112 97.9281 44.752C97.0321 47.248 96.3921 49.744 96.0081 52.24C95.6241 54.672 95.4321 57.2 95.4321 59.824C95.4321 60.912 95.4641 62.032 95.5281 63.184C95.6561 64.336 95.7521 65.52 95.8161 66.736C95.9441 67.376 95.7521 68.176 95.2401 69.136C94.7921 70.032 94.2481 70.48 93.6081 70.48C93.1601 70.48 92.7761 70.192 92.4561 69.616C92.1361 69.04 91.9121 68.528 91.7841 68.08C91.5281 67.312 91.3361 66.512 91.2081 65.68C91.0801 64.784 90.9521 64.016 90.8241 63.376C90.3761 60.752 89.9601 58.096 89.5761 55.408C89.1921 52.656 88.6481 50 87.9441 47.44C87.7521 46.736 87.4961 46 87.1761 45.232C86.9201 44.4 86.5041 43.728 85.9281 43.216C85.8001 43.088 85.6081 42.96 85.3521 42.832C85.0961 42.64 84.9681 42.48 84.9681 42.352C84.9681 42.096 85.3201 41.968 86.0241 41.968C86.7921 41.968 87.5601 42.352 88.3281 43.12C89.0961 43.888 89.8001 44.912 90.4401 46.192C91.2081 47.792 91.8481 49.488 92.3601 51.28C92.9361 53.072 93.3841 54.512 93.7041 55.6C94.0881 53.296 94.5041 51.248 94.9521 49.456C95.4001 47.92 96.0081 46.096 96.7761 43.984C97.5441 41.808 98.5041 39.696 99.6561 37.648C100.808 35.536 102.184 33.808 103.784 32.464C105.384 31.056 107.24 30.352 109.352 30.352C112.424 30.352 113.96 32.144 113.96 35.728C113.96 37.584 113.64 39.632 113 41.872C112.36 44.048 111.656 46.064 110.888 47.92C110.184 49.776 109.704 51.056 109.448 51.76C109.128 52.656 108.776 53.872 108.392 55.408C108.072 56.944 107.784 58.544 107.528 60.208C107.336 61.872 107.24 63.408 107.24 64.816C107.24 66.032 107.368 67.056 107.624 67.888C107.944 68.656 108.424 69.04 109.064 69.04C109.704 69.04 110.28 68.752 110.792 68.176C111.304 67.536 111.72 66.96 112.04 66.448C112.424 65.936 112.616 65.84 112.616 66.16C112.744 67.12 112.392 68.208 111.56 69.424C110.792 70.64 109.864 71.248 108.776 71.248ZM122.997 71.92C121.397 71.92 119.989 71.344 118.773 70.192C117.621 69.104 117.045 67.216 117.045 64.528C117.045 63.12 117.333 61.392 117.909 59.344C118.485 57.232 119.253 55.024 120.213 52.72C121.237 50.416 122.389 48.272 123.669 46.288C124.949 44.304 126.293 42.672 127.701 41.392C129.109 40.112 130.485 39.472 131.829 39.472C132.917 39.472 133.685 39.856 134.133 40.624C134.645 41.392 134.901 42.224 134.901 43.12C134.901 43.888 134.741 44.592 134.421 45.232C134.165 45.808 133.781 46.096 133.269 46.096C132.757 46.096 132.373 45.872 132.117 45.424C131.925 44.912 131.733 44.432 131.541 43.984C131.413 43.472 131.061 43.216 130.485 43.216C129.333 43.216 128.181 43.984 127.029 45.52C125.877 46.992 124.821 48.88 123.861 51.184C122.901 53.488 122.133 55.856 121.557 58.288C120.981 60.72 120.693 62.864 120.693 64.72C120.693 66.32 120.885 67.504 121.269 68.272C121.717 68.976 122.517 69.328 123.669 69.328C125.141 69.328 126.549 68.912 127.893 68.08C129.301 67.184 130.581 66.096 131.733 64.816C132.885 63.536 133.845 62.32 134.613 61.168C135.445 60.016 136.021 59.152 136.341 58.576C137.109 57.104 137.717 56.368 138.165 56.368C138.357 56.368 138.453 56.624 138.453 57.136C138.453 57.776 138.325 58.416 138.069 59.056C137.813 59.632 137.557 60.176 137.301 60.688C136.405 62.608 135.189 64.432 133.653 66.16C132.117 67.824 130.421 69.2 128.565 70.288C126.773 71.376 124.917 71.92 122.997 71.92ZM139.088 107.728C136.592 107.728 134.576 107.056 133.04 105.712C131.504 104.432 130.736 102.704 130.736 100.528C130.736 98.608 131.28 96.688 132.368 94.768C133.392 92.912 134.672 91.12 136.208 89.392C137.808 87.728 139.408 86.256 141.008 84.976C143.824 82.736 147.152 80.624 150.992 78.64C154.896 76.656 159.28 75.152 164.144 74.128C164.208 73.424 164.24 72.688 164.24 71.92C164.24 71.216 164.24 70.512 164.24 69.808C164.24 64.624 163.888 59.92 163.184 55.696C162.48 51.408 161.68 47.728 160.784 44.656C158.224 50.992 155.952 56.272 153.968 60.496C151.984 64.656 150.896 68.144 150.704 70.96C150.64 71.408 150.352 71.888 149.84 72.4C149.392 72.976 148.88 73.264 148.304 73.264C147.92 73.264 147.536 73.04 147.152 72.592C146.832 72.208 146.608 71.504 146.48 70.48C146.48 70.224 146.448 69.872 146.384 69.424C146.384 68.976 146.384 68.176 146.384 67.024C146.384 65.872 146.384 64.144 146.384 61.84C146.384 59.792 146.32 57.712 146.192 55.6C146.128 53.424 145.904 51.408 145.52 49.552C145.136 47.696 144.56 46.192 143.792 45.04C143.088 43.888 142.096 43.312 140.816 43.312C139.792 43.312 138.832 43.696 137.936 44.464C137.104 45.232 136.4 46 135.824 46.768C135.248 47.472 134.8 47.824 134.48 47.824C134.224 47.824 134.096 47.728 134.096 47.536C134.096 47.408 134.192 47.216 134.384 46.96C134.512 46.64 134.64 46.384 134.768 46.192C135.344 45.36 136.08 44.528 136.976 43.696C137.936 42.864 138.928 42.16 139.952 41.584C141.04 40.944 142 40.624 142.832 40.624C144.56 40.624 145.904 41.52 146.864 43.312C147.824 45.04 148.496 47.248 148.88 49.936C149.328 52.624 149.552 55.376 149.552 58.192C149.552 59.408 149.488 60.88 149.36 62.608C149.232 64.336 149.072 65.808 148.88 67.024C150.16 64.656 151.792 61.36 153.776 57.136C155.76 52.912 157.936 48.144 160.304 42.832L159.44 40.336V40.048C159.44 39.408 159.632 38.928 160.016 38.608C160.464 38.288 160.912 38.128 161.36 38.128C161.744 38.128 162.128 38.224 162.512 38.416C162.896 38.608 163.152 38.896 163.28 39.28C164.048 41.008 164.688 43.376 165.2 46.384C165.776 49.392 166.192 52.656 166.448 56.176C166.768 59.632 166.928 63.056 166.928 66.448C166.928 69.008 166.832 71.408 166.64 73.648C168.24 73.328 169.936 73.072 171.728 72.88C173.584 72.688 175.184 72.592 176.528 72.592C177.36 72.592 177.776 72.72 177.776 72.976C177.776 73.488 177.104 73.808 175.76 73.936C174.224 74.064 172.656 74.224 171.056 74.416C169.52 74.672 167.952 74.992 166.352 75.376C165.008 82.736 162.896 88.624 160.016 93.04C157.2 97.52 154.288 100.88 151.28 103.12C149.104 104.72 146.96 105.872 144.848 106.576C142.8 107.344 140.88 107.728 139.088 107.728ZM138.32 105.712C139.408 105.712 140.656 105.488 142.064 105.04C143.536 104.592 145.072 103.888 146.672 102.928C151.792 99.92 155.76 96.112 158.576 91.504C161.392 86.96 163.184 81.776 163.952 75.952C160.176 76.976 156.368 78.448 152.528 80.368C148.752 82.352 145.296 84.656 142.16 87.28C140.752 88.496 139.344 89.872 137.936 91.408C136.592 92.944 135.472 94.512 134.576 96.112C133.68 97.776 133.232 99.376 133.232 100.912C133.232 102.384 133.68 103.536 134.576 104.368C135.472 105.264 136.72 105.712 138.32 105.712ZM202.478 71.92C200.878 71.92 199.47 71.344 198.254 70.192C197.102 69.104 196.526 67.216 196.526 64.528C196.526 63.12 196.814 61.392 197.39 59.344C197.966 57.232 198.734 55.024 199.694 52.72C200.718 50.416 201.87 48.272 203.15 46.288C204.43 44.304 205.774 42.672 207.182 41.392C208.59 40.112 209.966 39.472 211.31 39.472C212.398 39.472 213.166 39.856 213.614 40.624C214.126 41.392 214.382 42.224 214.382 43.12C214.382 43.888 214.222 44.592 213.902 45.232C213.646 45.808 213.262 46.096 212.75 46.096C212.238 46.096 211.854 45.872 211.598 45.424C211.406 44.912 211.214 44.432 211.022 43.984C210.894 43.472 210.542 43.216 209.966 43.216C208.814 43.216 207.662 43.984 206.51 45.52C205.358 46.992 204.302 48.88 203.342 51.184C202.382 53.488 201.614 55.856 201.038 58.288C200.462 60.72 200.174 62.864 200.174 64.72C200.174 66.32 200.366 67.504 200.75 68.272C201.198 68.976 201.998 69.328 203.15 69.328C204.622 69.328 206.03 68.912 207.374 68.08C208.782 67.184 210.062 66.096 211.214 64.816C212.366 63.536 213.326 62.32 214.094 61.168C214.926 60.016 215.502 59.152 215.822 58.576C216.59 57.104 217.198 56.368 217.646 56.368C217.838 56.368 217.934 56.624 217.934 57.136C217.934 57.776 217.806 58.416 217.55 59.056C217.294 59.632 217.038 60.176 216.782 60.688C215.886 62.608 214.67 64.432 213.134 66.16C211.598 67.824 209.902 69.2 208.046 70.288C206.254 71.376 204.398 71.92 202.478 71.92ZM230.022 73.36C227.91 73.36 226.182 72.72 224.838 71.44C223.558 70.16 222.598 68.528 221.958 66.544C221.318 64.496 220.998 62.352 220.998 60.112C220.998 58.768 221.126 57.488 221.382 56.272C221.638 55.056 221.894 54.064 222.15 53.296C222.086 52.848 222.022 52.4 221.958 51.952C221.958 51.44 221.958 50.928 221.958 50.416C221.958 48.56 222.15 46.544 222.534 44.368C222.918 42.192 223.526 40.112 224.358 38.128C225.254 36.144 226.342 34.544 227.622 33.328C228.966 32.048 230.598 31.408 232.518 31.408C234.182 31.408 235.814 32.112 237.414 33.52C239.014 34.864 240.422 36.848 241.638 39.472C242.342 40.944 242.822 42.544 243.078 44.272C243.398 45.936 243.558 47.632 243.558 49.36C243.558 51.728 243.302 54.096 242.79 56.464C242.342 58.768 241.67 60.944 240.774 62.992C240.134 64.464 239.27 66.032 238.182 67.696C237.158 69.296 235.974 70.64 234.63 71.728C233.286 72.816 231.75 73.36 230.022 73.36ZM230.502 71.248C232.678 71.248 234.694 69.744 236.55 66.736C237.894 64.624 238.854 62.224 239.43 59.536C240.006 56.784 240.294 54.032 240.294 51.28C240.294 49.232 240.166 47.248 239.91 45.328C239.654 43.408 239.27 41.552 238.758 39.76C238.31 38.16 237.542 36.752 236.454 35.536C235.43 34.256 233.958 33.712 232.038 33.904C230.502 34.032 229.158 34.8 228.006 36.208C226.854 37.616 225.958 39.216 225.318 41.008C224.742 42.736 224.454 44.24 224.454 45.52C224.454 46.224 224.55 46.768 224.742 47.152C224.934 46.64 225.414 45.808 226.182 44.656C226.95 43.44 227.814 42.352 228.774 41.392C229.734 40.368 230.63 39.856 231.462 39.856C232.166 39.856 232.518 40.144 232.518 40.72C231.686 40.784 230.854 41.296 230.022 42.256C229.254 43.152 228.518 44.24 227.814 45.52C227.174 46.8 226.63 48.08 226.182 49.36C225.798 50.576 225.51 51.536 225.318 52.24C225.254 52.496 225.158 52.816 225.03 53.2C224.902 53.584 224.838 53.968 224.838 54.352C224.838 54.8 225.094 55.536 225.606 56.56C226.118 57.52 226.95 58.416 228.102 59.248C229.254 60.08 230.822 60.496 232.806 60.496C233.382 60.496 233.99 60.432 234.63 60.304C235.27 60.176 235.878 60.048 236.454 59.92L237.126 59.728C237.254 59.728 237.318 59.792 237.318 59.92C237.318 60.112 237.094 60.368 236.646 60.688C236.262 60.944 235.91 61.136 235.59 61.264C234.694 61.712 233.702 61.936 232.614 61.936C231.014 61.936 229.478 61.456 228.006 60.496C226.598 59.472 225.35 58.32 224.262 57.04C224.198 57.552 224.166 58.064 224.166 58.576C224.166 59.024 224.166 59.472 224.166 59.92C224.166 63.632 224.806 66.448 226.086 68.368C227.366 70.288 228.838 71.248 230.502 71.248ZM263.762 85.264C262.93 85.264 262.13 84.944 261.362 84.304C260.658 83.664 260.05 83.024 259.538 82.384C257.49 80.016 255.762 76.88 254.354 72.976C253.01 69.072 251.986 64.784 251.282 60.112C250.578 55.376 250.226 50.576 250.226 45.712C250.226 41.168 250.514 36.752 251.09 32.464C251.73 28.176 252.69 24.272 253.97 20.752C255.25 17.232 256.85 14.416 258.77 12.304C261.266 9.488 263.666 8.08 265.97 8.08C267.378 8.08 268.498 8.72 269.33 10C270.226 11.216 270.674 13.168 270.674 15.856C270.674 18.416 270.162 21.68 269.138 25.648C268.178 29.552 266.514 34.224 264.146 39.664C263.314 41.456 262.418 43.248 261.458 45.04C260.562 46.832 259.602 48.72 258.578 50.704C258.194 51.472 257.874 51.856 257.618 51.856C257.49 51.856 257.426 51.728 257.426 51.472C257.426 50.96 257.65 50.288 258.098 49.456C263.922 38.512 266.834 27.632 266.834 16.816C266.834 12.528 265.938 10.384 264.146 10.384C262.866 10.384 261.362 11.632 259.634 14.128C257.266 17.648 255.634 21.84 254.738 26.704C253.842 31.504 253.394 36.368 253.394 41.296C253.394 45.008 253.554 48.624 253.874 52.144C254.194 55.6 254.578 58.736 255.026 61.552C255.218 62.768 255.506 64.4 255.89 66.448C256.274 68.496 256.786 70.64 257.426 72.88C258.066 75.184 258.77 77.264 259.538 79.12C260.37 81.04 261.266 82.416 262.226 83.248C262.482 83.44 262.738 83.632 262.994 83.824C263.314 84.08 263.666 84.24 264.05 84.304C264.626 84.304 264.914 84.464 264.914 84.784C264.914 85.104 264.53 85.264 263.762 85.264ZM277.103 73.36C274.991 73.36 273.263 72.72 271.919 71.44C270.639 70.16 269.679 68.528 269.039 66.544C268.399 64.496 268.079 62.352 268.079 60.112C268.079 58.768 268.207 57.488 268.463 56.272C268.719 55.056 268.975 54.064 269.231 53.296C269.167 52.848 269.103 52.4 269.039 51.952C269.039 51.44 269.039 50.928 269.039 50.416C269.039 48.56 269.231 46.544 269.615 44.368C269.999 42.192 270.607 40.112 271.439 38.128C272.335 36.144 273.423 34.544 274.703 33.328C276.047 32.048 277.679 31.408 279.599 31.408C281.263 31.408 282.895 32.112 284.495 33.52C286.095 34.864 287.503 36.848 288.719 39.472C289.423 40.944 289.903 42.544 290.159 44.272C290.479 45.936 290.639 47.632 290.639 49.36C290.639 51.728 290.383 54.096 289.871 56.464C289.423 58.768 288.751 60.944 287.855 62.992C287.215 64.464 286.351 66.032 285.263 67.696C284.239 69.296 283.055 70.64 281.711 71.728C280.367 72.816 278.831 73.36 277.103 73.36ZM277.583 71.248C279.759 71.248 281.775 69.744 283.631 66.736C284.975 64.624 285.935 62.224 286.511 59.536C287.087 56.784 287.375 54.032 287.375 51.28C287.375 49.232 287.247 47.248 286.991 45.328C286.735 43.408 286.351 41.552 285.839 39.76C285.391 38.16 284.623 36.752 283.535 35.536C282.511 34.256 281.039 33.712 279.119 33.904C277.583 34.032 276.239 34.8 275.087 36.208C273.935 37.616 273.039 39.216 272.399 41.008C271.823 42.736 271.535 44.24 271.535 45.52C271.535 46.224 271.631 46.768 271.823 47.152C272.015 46.64 272.495 45.808 273.263 44.656C274.031 43.44 274.895 42.352 275.855 41.392C276.815 40.368 277.711 39.856 278.543 39.856C279.247 39.856 279.599 40.144 279.599 40.72C278.767 40.784 277.935 41.296 277.103 42.256C276.335 43.152 275.599 44.24 274.895 45.52C274.255 46.8 273.711 48.08 273.263 49.36C272.879 50.576 272.591 51.536 272.399 52.24C272.335 52.496 272.239 52.816 272.111 53.2C271.983 53.584 271.919 53.968 271.919 54.352C271.919 54.8 272.175 55.536 272.687 56.56C273.199 57.52 274.031 58.416 275.183 59.248C276.335 60.08 277.903 60.496 279.887 60.496C280.463 60.496 281.071 60.432 281.711 60.304C282.351 60.176 282.959 60.048 283.535 59.92L284.207 59.728C284.335 59.728 284.399 59.792 284.399 59.92C284.399 60.112 284.175 60.368 283.727 60.688C283.343 60.944 282.991 61.136 282.671 61.264C281.775 61.712 280.783 61.936 279.695 61.936C278.095 61.936 276.559 61.456 275.087 60.496C273.679 59.472 272.431 58.32 271.343 57.04C271.279 57.552 271.247 58.064 271.247 58.576C271.247 59.024 271.247 59.472 271.247 59.92C271.247 63.632 271.887 66.448 273.167 68.368C274.447 70.288 275.919 71.248 277.583 71.248ZM308.923 74.8C306.875 74.8 305.307 73.84 304.219 71.92C303.131 70.064 302.587 68.016 302.587 65.776C302.587 63.664 302.939 61.456 303.643 59.152C304.347 56.848 305.211 54.576 306.235 52.336C307.323 50.096 308.443 48.048 309.595 46.192C308.443 46.64 307.355 46.864 306.331 46.864C305.819 46.864 305.371 46.8 304.987 46.672C304.603 46.544 304.283 46.448 304.027 46.384C303.707 47.152 303.131 48.432 302.299 50.224C301.531 52.016 300.699 53.904 299.803 55.888C298.971 57.808 298.235 59.44 297.595 60.784C296.571 62.96 295.675 64.048 294.907 64.048C294.523 64.048 294.331 63.792 294.331 63.28C294.331 62.896 294.491 62.384 294.811 61.744C296.283 58.992 297.659 56.272 298.939 53.584C300.283 50.896 301.499 48.304 302.587 45.808C302.459 45.488 302.331 45.072 302.203 44.56C302.075 43.984 302.011 43.376 302.011 42.736C302.011 42.032 302.075 41.296 302.203 40.528C302.395 39.696 302.651 38.896 302.971 38.128C303.163 37.68 303.515 37.04 304.027 36.208C304.539 35.312 305.115 34.512 305.755 33.808C306.395 33.04 307.003 32.656 307.579 32.656C308.667 32.656 309.211 33.232 309.211 34.384C309.211 35.472 308.859 36.72 308.155 38.128C307.515 39.536 306.843 40.848 306.139 42.064C305.435 43.216 305.083 44.08 305.083 44.656C305.083 45.168 305.339 45.424 305.851 45.424C306.555 45.424 307.419 45.072 308.443 44.368C309.531 43.6 310.395 42.896 311.035 42.256C311.355 41.936 311.867 41.456 312.571 40.816C313.275 40.112 313.947 39.76 314.587 39.76C315.227 39.76 315.643 39.952 315.835 40.336C316.091 40.72 316.219 41.168 316.219 41.68C316.219 42.256 315.963 42.992 315.451 43.888C314.939 44.72 314.331 45.552 313.627 46.384C312.987 47.216 312.443 47.92 311.995 48.496C311.099 49.84 310.075 51.536 308.923 53.584C307.771 55.632 306.779 57.84 305.947 60.208C305.115 62.512 304.699 64.72 304.699 66.832C304.699 68.24 305.051 69.712 305.755 71.248C306.459 72.784 307.419 73.552 308.635 73.552C309.723 73.552 310.875 72.976 312.091 71.824C313.371 70.672 314.555 69.296 315.643 67.696C316.795 66.096 317.787 64.56 318.619 63.088C319.515 61.616 320.123 60.592 320.443 60.016C320.571 59.696 320.795 59.312 321.115 58.864C321.435 58.352 321.819 58.096 322.267 58.096C322.651 58.096 322.843 58.288 322.843 58.672C322.843 58.992 322.747 59.376 322.555 59.824C322.427 60.208 322.299 60.56 322.171 60.88C321.595 62.224 320.891 63.632 320.059 65.104C319.227 66.576 318.651 67.568 318.331 68.08C317.435 69.552 316.091 71.024 314.299 72.496C312.571 74.032 310.779 74.8 308.923 74.8ZM331.66 74.128C330.828 74.128 330.22 73.84 329.836 73.264C329.516 72.752 329.356 72.24 329.356 71.728C329.356 70.704 329.804 69.648 330.7 68.56C331.02 68.176 331.468 67.664 332.044 67.024C332.62 66.32 333.036 65.776 333.292 65.392C332.46 64.24 331.34 63.184 329.932 62.224C328.524 61.264 327.148 60.048 325.804 58.576C324.588 57.232 323.564 55.6 322.732 53.68C321.9 51.696 321.484 49.808 321.484 48.016C321.484 45.904 321.964 43.888 322.924 41.968C323.884 40.048 325.068 38.384 326.476 36.976C328.012 35.44 329.708 34.224 331.564 33.328C333.42 32.368 335.34 31.888 337.324 31.888C338.668 31.888 339.98 32.208 341.26 32.848C342.54 33.488 343.18 34.544 343.18 36.016C343.18 37.744 342.796 38.608 342.028 38.608C341.708 38.608 341.484 38.288 341.356 37.648C341.292 37.328 341.26 37.008 341.26 36.688C341.26 36.304 341.26 36.048 341.26 35.92C341.26 35.28 340.972 34.736 340.396 34.288C339.82 33.776 339.18 33.52 338.476 33.52C337.004 33.52 335.372 34.096 333.58 35.248C331.788 36.4 330.284 37.744 329.068 39.28C327.852 40.88 326.86 42.704 326.092 44.752C325.324 46.736 324.94 48.656 324.94 50.512C324.94 52.816 325.452 54.8 326.476 56.464C327.5 58.128 328.716 59.6 330.124 60.88C331.596 62.16 332.908 63.408 334.06 64.624C334.636 63.92 335.244 63.248 335.884 62.608C336.588 61.968 337.228 61.456 337.804 61.072C338.316 60.752 338.668 60.592 338.86 60.592C339.052 60.592 339.148 60.688 339.148 60.88C339.148 61.2 338.86 61.584 338.284 62.032C338.156 62.16 337.772 62.544 337.132 63.184C336.556 63.76 335.852 64.496 335.02 65.392C335.532 65.968 335.948 66.576 336.268 67.216C336.588 67.856 336.748 68.56 336.748 69.328C336.748 70.352 336.172 71.408 335.02 72.496C333.868 73.584 332.748 74.128 331.66 74.128ZM332.716 71.536C333.164 71.536 333.58 71.12 333.964 70.288C334.412 69.52 334.636 68.752 334.636 67.984C334.636 67.6 334.572 67.248 334.444 66.928C334.316 66.608 334.22 66.416 334.156 66.352C333.644 66.992 333.164 67.696 332.716 68.464C332.332 69.168 332.14 69.808 332.14 70.384C332.14 71.152 332.332 71.536 332.716 71.536Z"/>
</svg>
