<svg width="56" height="65" viewBox="0 0 56 65" xmlns="http://www.w3.org/2000/svg">
<path d="M8.40185 26.9199C7.76185 26.9199 7.10185 26.7299 6.42185 26.3499C5.76185 25.9699 5.11185 25.3599 4.47185 24.5199C3.97185 23.8399 3.60185 23.0499 3.36185 22.1499C3.12185 21.2699 3.00185 20.3999 3.00185 19.5399C3.00185 19.0999 3.03185 18.6699 3.09185 18.2499C3.15185 17.7899 3.27185 17.2699 3.45185 16.6899C3.65185 16.1099 3.85185 15.6299 4.05185 15.2499C4.11185 15.1299 4.20185 14.9999 4.32185 14.8599C4.44185 14.7199 4.53185 14.6499 4.59185 14.6499C4.61185 14.6499 4.62185 14.6599 4.62185 14.6799C4.62185 14.6999 4.53185 14.9099 4.35185 15.3099C3.85185 16.3099 3.60185 17.4199 3.60185 18.6399C3.60185 19.7399 3.77185 20.8199 4.11185 21.8799C4.47185 22.9199 4.93185 23.8199 5.49185 24.5799C6.03185 25.2999 6.56185 25.8199 7.08185 26.1399C7.60185 26.4599 8.11185 26.6199 8.61185 26.6199C9.33185 26.6199 10.0019 26.3199 10.6219 25.7199C11.2419 25.1399 11.7619 24.3899 12.1819 23.4699C12.4819 22.8499 12.7319 22.0399 12.9319 21.0399C13.1319 20.0199 13.2919 18.8799 13.4119 17.6199C13.5319 16.3599 13.5819 15.0699 13.5619 13.7499V13.4799C12.8619 13.7799 12.1819 14.1399 11.5219 14.5599C10.8819 14.9599 10.2619 15.4099 9.66185 15.9099C9.60185 15.9699 9.54185 15.9999 9.48185 15.9999C9.36185 15.9999 9.26185 15.9299 9.18185 15.7899C9.10185 15.6299 9.06185 15.4799 9.06185 15.3399C9.06185 15.0999 9.13185 14.9399 9.27185 14.8599C9.95185 14.3399 10.6419 13.9099 11.3419 13.5699C12.0619 13.2299 12.8019 12.9599 13.5619 12.7599C13.5419 11.4599 13.4219 10.1899 13.2019 8.9499C13.0019 7.7099 12.7319 6.5599 12.3919 5.4999C12.0719 4.4399 11.7119 3.5399 11.3119 2.7999L11.2819 2.7699C9.94185 2.7899 8.64185 2.9299 7.38185 3.1899C6.14185 3.4299 5.03185 3.7999 4.05185 4.2999C3.07185 4.7799 2.29185 5.3999 1.71185 6.1599C1.15185 6.8999 0.871851 7.7899 0.871851 8.8299C0.871851 9.2699 0.911851 9.6799 0.991851 10.0599C1.09185 10.4199 1.25185 10.7299 1.47185 10.9899C1.59185 11.1099 1.65185 11.2199 1.65185 11.3199C1.65185 11.4399 1.59185 11.4999 1.47185 11.4999C1.35185 11.4999 1.23185 11.4299 1.11185 11.2899C0.771851 10.8899 0.551851 10.4499 0.451851 9.9699C0.331851 9.4899 0.271851 9.0099 0.271851 8.5299C0.271851 7.5499 0.491851 6.6899 0.931851 5.9499C1.39185 5.2099 1.99185 4.5799 2.73185 4.0599C3.49185 3.5199 4.32185 3.0899 5.22185 2.7699C6.12185 2.4299 7.03185 2.1699 7.95185 1.9899C8.89185 1.8099 9.75185 1.7099 10.5319 1.6899C10.2519 1.3699 9.99185 1.1799 9.75185 1.1199C9.53185 1.0399 9.33185 1.0099 9.15185 1.0299C8.99185 1.0299 8.85185 0.989902 8.73185 0.909903C8.65185 0.849903 8.61185 0.779902 8.61185 0.699902C8.61185 0.499902 8.87185 0.399902 9.39185 0.399902C9.77185 0.399902 10.2019 0.499902 10.6819 0.699902C11.1819 0.879902 11.6319 1.2099 12.0319 1.6899C12.9519 1.7099 13.9819 1.7999 15.1219 1.9599C16.2619 2.1199 17.3819 2.3799 18.4819 2.7399C19.5819 3.0999 20.5419 3.5899 21.3619 4.2099C22.1819 4.8099 22.7219 5.5799 22.9819 6.5199C23.0019 6.5799 23.0119 6.6699 23.0119 6.7899C23.0119 6.9699 22.9619 7.0599 22.8619 7.0599C22.7619 7.0599 22.6619 6.9399 22.5619 6.6999C22.3419 5.8999 21.7519 5.2199 20.7919 4.6599C19.8319 4.0999 18.6419 3.6599 17.2219 3.3399C15.8219 2.9999 14.3319 2.8099 12.7519 2.7699C13.1719 3.5699 13.5019 4.5099 13.7419 5.5899C14.0019 6.6699 14.1919 7.8099 14.3119 9.0099C14.4519 10.1899 14.5419 11.3599 14.5819 12.5199C15.1619 12.3999 15.7519 12.3199 16.3519 12.2799C16.9519 12.2199 17.5619 12.1899 18.1819 12.1899C18.3419 12.1899 18.4819 12.2199 18.6019 12.2799C18.7219 12.3199 18.7819 12.3599 18.7819 12.3999C18.7819 12.5199 18.5319 12.5799 18.0319 12.5799C16.8519 12.5799 15.7019 12.7499 14.5819 13.0899C14.5819 13.2899 14.5819 13.4999 14.5819 13.7199C14.6019 13.9399 14.6119 14.1499 14.6119 14.3499C14.6119 15.2699 14.5819 16.1099 14.5219 16.8699C14.4819 17.6099 14.4419 18.2099 14.4019 18.6699C14.2419 20.1499 13.8719 21.5199 13.2919 22.7799C12.7119 24.0399 11.9919 25.0399 11.1319 25.7799C10.2919 26.5399 9.38185 26.9199 8.40185 26.9199Z" />
<path d="M20.1049 21.7599C19.7849 21.7599 19.5149 21.5899 19.2949 21.2499C19.1349 20.9699 19.0549 20.6399 19.0549 20.2599C19.0549 19.7199 19.1749 19.1099 19.4149 18.4299C19.6549 17.7499 19.9749 17.0899 20.3749 16.4499C20.7949 15.8099 21.2549 15.2699 21.7549 14.8299C22.2749 14.3699 22.8049 14.0999 23.3449 14.0199C23.5449 13.9999 23.7849 14.0499 24.0649 14.1699C24.3449 14.2899 24.5749 14.4399 24.7549 14.6199C24.7949 14.4199 24.8249 14.2299 24.8449 14.0499C24.8649 13.8499 24.8749 13.6599 24.8749 13.4799C24.8749 12.9199 24.7849 12.4199 24.6049 11.9799C24.4249 11.5399 24.1049 11.2499 23.6449 11.1099C23.4649 11.0499 23.2649 11.0199 23.0449 11.0199C22.9249 11.0199 22.7949 11.0399 22.6549 11.0799C22.5149 11.0999 22.3649 11.1599 22.2049 11.2599C22.0449 11.3399 21.8849 11.4699 21.7249 11.6499C21.5649 11.8099 21.4549 11.9599 21.3949 12.0999C21.3549 12.1799 21.2549 12.3599 21.0949 12.6399C20.9349 12.8999 20.8049 13.0199 20.7049 12.9999C20.6249 12.9799 20.5849 12.9099 20.5849 12.7899C20.5849 12.7299 20.6049 12.6399 20.6449 12.5199C20.7649 12.1399 20.9949 11.8199 21.3349 11.5599C21.6749 11.2799 22.0449 11.0599 22.4449 10.8999C22.8449 10.7199 23.1749 10.6199 23.4349 10.5999C23.4949 10.5999 23.5549 10.5999 23.6149 10.5999C23.6749 10.5799 23.7249 10.5699 23.7649 10.5699C24.0849 10.5699 24.3749 10.6199 24.6349 10.7199C24.9149 10.7999 25.1349 10.9099 25.2949 11.0499C25.5549 11.2499 25.7649 11.5099 25.9249 11.8299C26.0849 12.1299 26.1649 12.5099 26.1649 12.9699C26.1649 13.1099 26.1549 13.2599 26.1349 13.4199C26.1149 13.5799 26.0849 13.7399 26.0449 13.8999C25.9849 14.2199 25.9049 14.6299 25.8049 15.1299C25.7249 15.6099 25.6349 16.1099 25.5349 16.6299C25.4549 17.1499 25.3849 17.6299 25.3249 18.0699C25.2849 18.4899 25.2649 18.7899 25.2649 18.9699C25.2649 19.1699 25.3249 19.3999 25.4449 19.6599C25.5849 19.8999 25.7649 20.0199 25.9849 20.0199C26.1049 20.0199 26.2349 19.9599 26.3749 19.8399C26.5349 19.7199 26.6949 19.5199 26.8549 19.2399C26.9549 19.0799 27.0449 18.9999 27.1249 18.9999C27.2249 18.9999 27.2749 19.0599 27.2749 19.1799C27.2749 19.3399 27.1949 19.5299 27.0349 19.7499C26.6549 20.2899 26.1749 20.5599 25.5949 20.5599C25.1149 20.5599 24.7749 20.3599 24.5749 19.9599C24.2349 19.2999 24.0649 18.7099 24.0649 18.1899C24.0649 17.6499 24.0549 17.2799 24.0349 17.0799C23.9349 17.3199 23.7449 17.6999 23.4649 18.2199C23.1849 18.7199 22.8549 19.2499 22.4749 19.8099C22.0949 20.3499 21.6949 20.8099 21.2749 21.1899C20.8549 21.5699 20.4649 21.7599 20.1049 21.7599ZM20.5849 20.8599C20.7849 20.8599 21.0149 20.7599 21.2749 20.5599C21.5549 20.3599 21.8449 20.0499 22.1449 19.6299C22.5449 19.0499 22.9149 18.3999 23.2549 17.6799C23.5949 16.9599 23.9049 16.2599 24.1849 15.5799C23.9449 14.9999 23.6449 14.7099 23.2849 14.7099C22.9649 14.7099 22.6249 14.8799 22.2649 15.2199C21.9049 15.5599 21.5649 15.9499 21.2449 16.3899C20.8449 16.9899 20.5249 17.5899 20.2849 18.1899C20.0649 18.7899 19.9549 19.2999 19.9549 19.7199C19.9549 20.4799 20.1649 20.8599 20.5849 20.8599Z" />
<path d="M34.0863 22.3899C33.8263 22.3899 33.5963 22.2299 33.3963 21.9099C33.1963 21.5699 33.0963 20.9299 33.0963 19.9899C33.0963 19.2499 33.1563 18.4399 33.2763 17.5599C33.3963 16.6599 33.5263 15.7699 33.6663 14.8899C33.8263 14.0099 33.9663 13.2299 34.0863 12.5499C34.2063 11.8499 34.2663 11.3399 34.2663 11.0199C34.2663 10.4599 34.0963 10.1799 33.7563 10.1799C33.4363 10.1799 33.1063 10.3399 32.7663 10.6599C32.4463 10.9799 32.1363 11.3699 31.8363 11.8299C31.5563 12.2899 31.3063 12.7399 31.0863 13.1799C30.8863 13.5999 30.7563 13.9099 30.6963 14.1099C30.4163 14.8899 30.2163 15.6699 30.0963 16.4499C29.9763 17.2099 29.9163 17.9999 29.9163 18.8199C29.9163 19.1599 29.9263 19.5099 29.9463 19.8699C29.9863 20.2299 30.0163 20.5999 30.0363 20.9799C30.0763 21.1799 30.0163 21.4299 29.8563 21.7299C29.7163 22.0099 29.5463 22.1499 29.3463 22.1499C29.2063 22.1499 29.0863 22.0599 28.9863 21.8799C28.8863 21.6999 28.8163 21.5399 28.7763 21.3999C28.6963 21.1599 28.6363 20.9099 28.5963 20.6499C28.5563 20.3699 28.5163 20.1299 28.4763 19.9299C28.3363 19.1099 28.2063 18.2799 28.0863 17.4399C27.9663 16.5799 27.7963 15.7499 27.5763 14.9499C27.5163 14.7299 27.4363 14.4999 27.3363 14.2599C27.2563 13.9999 27.1263 13.7899 26.9463 13.6299C26.9063 13.5899 26.8463 13.5499 26.7663 13.5099C26.6863 13.4499 26.6463 13.3999 26.6463 13.3599C26.6463 13.2799 26.7563 13.2399 26.9763 13.2399C27.2163 13.2399 27.4563 13.3599 27.6963 13.5999C27.9363 13.8399 28.1563 14.1599 28.3563 14.5599C28.5963 15.0599 28.7963 15.5899 28.9563 16.1499C29.1363 16.7099 29.2763 17.1599 29.3763 17.4999C29.4963 16.7799 29.6263 16.1399 29.7663 15.5799C29.9063 15.0999 30.0963 14.5299 30.3363 13.8699C30.5763 13.1899 30.8763 12.5299 31.2363 11.8899C31.5963 11.2299 32.0263 10.6899 32.5263 10.2699C33.0263 9.8299 33.6063 9.6099 34.2663 9.6099C35.2263 9.6099 35.7063 10.1699 35.7063 11.2899C35.7063 11.8699 35.6063 12.5099 35.4063 13.2099C35.2063 13.8899 34.9863 14.5199 34.7463 15.0999C34.5263 15.6799 34.3763 16.0799 34.2963 16.2999C34.1963 16.5799 34.0863 16.9599 33.9663 17.4399C33.8663 17.9199 33.7763 18.4199 33.6963 18.9399C33.6363 19.4599 33.6063 19.9399 33.6063 20.3799C33.6063 20.7599 33.6463 21.0799 33.7263 21.3399C33.8263 21.5799 33.9763 21.6999 34.1763 21.6999C34.3763 21.6999 34.5563 21.6099 34.7163 21.4299C34.8763 21.2299 35.0063 21.0499 35.1063 20.8899C35.2263 20.7299 35.2863 20.6999 35.2863 20.7999C35.3263 21.0999 35.2163 21.4399 34.9563 21.8199C34.7163 22.1999 34.4263 22.3899 34.0863 22.3899Z" />
<path d="M38.5303 22.5999C38.0303 22.5999 37.5903 22.4199 37.2103 22.0599C36.8503 21.7199 36.6703 21.1299 36.6703 20.2899C36.6703 19.8499 36.7603 19.3099 36.9403 18.6699C37.1203 18.0099 37.3603 17.3199 37.6603 16.5999C37.9803 15.8799 38.3403 15.2099 38.7403 14.5899C39.1403 13.9699 39.5603 13.4599 40.0003 13.0599C40.4403 12.6599 40.8703 12.4599 41.2903 12.4599C41.6303 12.4599 41.8703 12.5799 42.0103 12.8199C42.1703 13.0599 42.2503 13.3199 42.2503 13.5999C42.2503 13.8399 42.2003 14.0599 42.1003 14.2599C42.0203 14.4399 41.9003 14.5299 41.7403 14.5299C41.5803 14.5299 41.4603 14.4599 41.3803 14.3199C41.3203 14.1599 41.2603 14.0099 41.2003 13.8699C41.1603 13.7099 41.0503 13.6299 40.8703 13.6299C40.5103 13.6299 40.1503 13.8699 39.7903 14.3499C39.4303 14.8099 39.1003 15.3999 38.8003 16.1199C38.5003 16.8399 38.2603 17.5799 38.0803 18.3399C37.9003 19.0999 37.8103 19.7699 37.8103 20.3499C37.8103 20.8499 37.8703 21.2199 37.9903 21.4599C38.1303 21.6799 38.3803 21.7899 38.7403 21.7899C39.2003 21.7899 39.6403 21.6599 40.0603 21.3999C40.5003 21.1199 40.9003 20.7799 41.2603 20.3799C41.6203 19.9799 41.9203 19.5999 42.1603 19.2399C42.4203 18.8799 42.6003 18.6099 42.7003 18.4299C42.9403 17.9699 43.1303 17.7399 43.2703 17.7399C43.3303 17.7399 43.3603 17.8199 43.3603 17.9799C43.3603 18.1799 43.3203 18.3799 43.2403 18.5799C43.1603 18.7599 43.0803 18.9299 43.0003 19.0899C42.7203 19.6899 42.3403 20.2599 41.8603 20.7999C41.3803 21.3199 40.8503 21.7499 40.2703 22.0899C39.7103 22.4299 39.1303 22.5999 38.5303 22.5999Z" />
<path d="M43.5588 33.7899C42.7788 33.7899 42.1488 33.5799 41.6688 33.1599C41.1888 32.7599 40.9488 32.2199 40.9488 31.5399C40.9488 30.9399 41.1188 30.3399 41.4588 29.7399C41.7788 29.1599 42.1788 28.5999 42.6588 28.0599C43.1588 27.5399 43.6588 27.0799 44.1588 26.6799C45.0388 25.9799 46.0788 25.3199 47.2788 24.6999C48.4988 24.0799 49.8688 23.6099 51.3888 23.2899C51.4088 23.0699 51.4188 22.8399 51.4188 22.5999C51.4188 22.3799 51.4188 22.1599 51.4188 21.9399C51.4188 20.3199 51.3088 18.8499 51.0888 17.5299C50.8688 16.1899 50.6188 15.0399 50.3388 14.0799C49.5388 16.0599 48.8288 17.7099 48.2088 19.0299C47.5888 20.3299 47.2488 21.4199 47.1888 22.2999C47.1688 22.4399 47.0788 22.5899 46.9188 22.7499C46.7788 22.9299 46.6188 23.0199 46.4388 23.0199C46.3188 23.0199 46.1988 22.9499 46.0788 22.8099C45.9788 22.6899 45.9088 22.4699 45.8688 22.1499C45.8688 22.0699 45.8588 21.9599 45.8388 21.8199C45.8388 21.6799 45.8388 21.4299 45.8388 21.0699C45.8388 20.7099 45.8388 20.1699 45.8388 19.4499C45.8388 18.8099 45.8188 18.1599 45.7788 17.4999C45.7588 16.8199 45.6888 16.1899 45.5688 15.6099C45.4488 15.0299 45.2688 14.5599 45.0288 14.1999C44.8088 13.8399 44.4988 13.6599 44.0988 13.6599C43.7788 13.6599 43.4788 13.7799 43.1988 14.0199C42.9388 14.2599 42.7188 14.4999 42.5388 14.7399C42.3588 14.9599 42.2188 15.0699 42.1188 15.0699C42.0388 15.0699 41.9988 15.0399 41.9988 14.9799C41.9988 14.9399 42.0288 14.8799 42.0888 14.7999C42.1288 14.6999 42.1688 14.6199 42.2088 14.5599C42.3888 14.2999 42.6188 14.0399 42.8988 13.7799C43.1988 13.5199 43.5088 13.2999 43.8288 13.1199C44.1688 12.9199 44.4688 12.8199 44.7288 12.8199C45.2688 12.8199 45.6888 13.0999 45.9888 13.6599C46.2888 14.1999 46.4988 14.8899 46.6188 15.7299C46.7588 16.5699 46.8288 17.4299 46.8288 18.3099C46.8288 18.6899 46.8088 19.1499 46.7688 19.6899C46.7288 20.2299 46.6788 20.6899 46.6188 21.0699C47.0188 20.3299 47.5288 19.2999 48.1488 17.9799C48.7688 16.6599 49.4488 15.1699 50.1888 13.5099L49.9188 12.7299V12.6399C49.9188 12.4399 49.9788 12.2899 50.0988 12.1899C50.2388 12.0899 50.3788 12.0399 50.5188 12.0399C50.6388 12.0399 50.7588 12.0699 50.8788 12.1299C50.9988 12.1899 51.0788 12.2799 51.1188 12.3999C51.3588 12.9399 51.5588 13.6799 51.7188 14.6199C51.8988 15.5599 52.0288 16.5799 52.1088 17.6799C52.2088 18.7599 52.2588 19.8299 52.2588 20.8899C52.2588 21.6899 52.2288 22.4399 52.1688 23.1399C52.6688 23.0399 53.1988 22.9599 53.7588 22.8999C54.3388 22.8399 54.8388 22.8099 55.2588 22.8099C55.5188 22.8099 55.6488 22.8499 55.6488 22.9299C55.6488 23.0899 55.4388 23.1899 55.0188 23.2299C54.5388 23.2699 54.0488 23.3199 53.5488 23.3799C53.0688 23.4599 52.5788 23.5599 52.0788 23.6799C51.6588 25.9799 50.9988 27.8199 50.0988 29.1999C49.2188 30.5999 48.3088 31.6499 47.3688 32.3499C46.6888 32.8499 46.0188 33.2099 45.3588 33.4299C44.7188 33.6699 44.1188 33.7899 43.5588 33.7899ZM43.3188 33.1599C43.6588 33.1599 44.0488 33.0899 44.4888 32.9499C44.9488 32.8099 45.4288 32.5899 45.9288 32.2899C47.5288 31.3499 48.7688 30.1599 49.6488 28.7199C50.5288 27.2999 51.0888 25.6799 51.3288 23.8599C50.1488 24.1799 48.9588 24.6399 47.7588 25.2399C46.5788 25.8599 45.4988 26.5799 44.5188 27.3999C44.0788 27.7799 43.6388 28.2099 43.1988 28.6899C42.7788 29.1699 42.4288 29.6599 42.1488 30.1599C41.8688 30.6799 41.7288 31.1799 41.7288 31.6599C41.7288 32.1199 41.8688 32.4799 42.1488 32.7399C42.4288 33.0199 42.8188 33.1599 43.3188 33.1599Z" />
<path d="M9.78126 60.5999C9.28126 60.5999 8.84126 60.4199 8.46126 60.0599C8.10126 59.7199 7.92126 59.1299 7.92126 58.2899C7.92126 57.8499 8.01126 57.3099 8.19126 56.6699C8.37126 56.0099 8.61126 55.3199 8.91126 54.5999C9.23126 53.8799 9.59126 53.2099 9.99126 52.5899C10.3913 51.9699 10.8113 51.4599 11.2513 51.0599C11.6913 50.6599 12.1213 50.4599 12.5413 50.4599C12.8813 50.4599 13.1213 50.5799 13.2613 50.8199C13.4213 51.0599 13.5013 51.3199 13.5013 51.5999C13.5013 51.8399 13.4513 52.0599 13.3513 52.2599C13.2713 52.4399 13.1513 52.5299 12.9913 52.5299C12.8313 52.5299 12.7113 52.4599 12.6313 52.3199C12.5713 52.1599 12.5113 52.0099 12.4513 51.8699C12.4113 51.7099 12.3013 51.6299 12.1213 51.6299C11.7613 51.6299 11.4013 51.8699 11.0413 52.3499C10.6813 52.8099 10.3513 53.3999 10.0513 54.1199C9.75126 54.8399 9.51126 55.5799 9.33126 56.3399C9.15126 57.0999 9.06126 57.7699 9.06126 58.3499C9.06126 58.8499 9.12126 59.2199 9.24126 59.4599C9.38126 59.6799 9.63126 59.7899 9.99126 59.7899C10.4513 59.7899 10.8913 59.6599 11.3113 59.3999C11.7513 59.1199 12.1513 58.7799 12.5113 58.3799C12.8713 57.9799 13.1713 57.5999 13.4113 57.2399C13.6713 56.8799 13.8513 56.6099 13.9513 56.4299C14.1913 55.9699 14.3813 55.7399 14.5213 55.7399C14.5813 55.7399 14.6113 55.8199 14.6113 55.9799C14.6113 56.1799 14.5713 56.3799 14.4913 56.5799C14.4113 56.7599 14.3313 56.9299 14.2513 57.0899C13.9713 57.6899 13.5913 58.2599 13.1113 58.7999C12.6313 59.3199 12.1013 59.7499 11.5213 60.0899C10.9613 60.4299 10.3813 60.5999 9.78126 60.5999Z" />
<path d="M18.3887 61.0499C17.7287 61.0499 17.1887 60.8499 16.7687 60.4499C16.3687 60.0499 16.0687 59.5399 15.8687 58.9199C15.6687 58.2799 15.5687 57.6099 15.5687 56.9099C15.5687 56.4899 15.6087 56.0899 15.6887 55.7099C15.7687 55.3299 15.8487 55.0199 15.9287 54.7799C15.9087 54.6399 15.8887 54.4999 15.8687 54.3599C15.8687 54.1999 15.8687 54.0399 15.8687 53.8799C15.8687 53.2999 15.9287 52.6699 16.0487 51.9899C16.1687 51.3099 16.3587 50.6599 16.6187 50.0399C16.8987 49.4199 17.2387 48.9199 17.6387 48.5399C18.0587 48.1399 18.5687 47.9399 19.1687 47.9399C19.6887 47.9399 20.1987 48.1599 20.6987 48.5999C21.1987 49.0199 21.6387 49.6399 22.0187 50.4599C22.2387 50.9199 22.3887 51.4199 22.4687 51.9599C22.5687 52.4799 22.6187 53.0099 22.6187 53.5499C22.6187 54.2899 22.5387 55.0299 22.3787 55.7699C22.2387 56.4899 22.0287 57.1699 21.7487 57.8099C21.5487 58.2699 21.2787 58.7599 20.9387 59.2799C20.6187 59.7799 20.2487 60.1999 19.8287 60.5399C19.4087 60.8799 18.9287 61.0499 18.3887 61.0499ZM18.5387 60.3899C19.2187 60.3899 19.8487 59.9199 20.4287 58.9799C20.8487 58.3199 21.1487 57.5699 21.3287 56.7299C21.5087 55.8699 21.5987 55.0099 21.5987 54.1499C21.5987 53.5099 21.5587 52.8899 21.4787 52.2899C21.3987 51.6899 21.2787 51.1099 21.1187 50.5499C20.9787 50.0499 20.7387 49.6099 20.3987 49.2299C20.0787 48.8299 19.6187 48.6599 19.0187 48.7199C18.5387 48.7599 18.1187 48.9999 17.7587 49.4399C17.3987 49.8799 17.1187 50.3799 16.9187 50.9399C16.7387 51.4799 16.6487 51.9499 16.6487 52.3499C16.6487 52.5699 16.6787 52.7399 16.7387 52.8599C16.7987 52.6999 16.9487 52.4399 17.1887 52.0799C17.4287 51.6999 17.6987 51.3599 17.9987 51.0599C18.2987 50.7399 18.5787 50.5799 18.8387 50.5799C19.0587 50.5799 19.1687 50.6699 19.1687 50.8499C18.9087 50.8699 18.6487 51.0299 18.3887 51.3299C18.1487 51.6099 17.9187 51.9499 17.6987 52.3499C17.4987 52.7499 17.3287 53.1499 17.1887 53.5499C17.0687 53.9299 16.9787 54.2299 16.9187 54.4499C16.8987 54.5299 16.8687 54.6299 16.8287 54.7499C16.7887 54.8699 16.7687 54.9899 16.7687 55.1099C16.7687 55.2499 16.8487 55.4799 17.0087 55.7999C17.1687 56.0999 17.4287 56.3799 17.7887 56.6399C18.1487 56.8999 18.6387 57.0299 19.2587 57.0299C19.4387 57.0299 19.6287 57.0099 19.8287 56.9699C20.0287 56.9299 20.2187 56.8899 20.3987 56.8499L20.6087 56.7899C20.6487 56.7899 20.6687 56.8099 20.6687 56.8499C20.6687 56.9099 20.5987 56.9899 20.4587 57.0899C20.3387 57.1699 20.2287 57.2299 20.1287 57.2699C19.8487 57.4099 19.5387 57.4799 19.1987 57.4799C18.6987 57.4799 18.2187 57.3299 17.7587 57.0299C17.3187 56.7099 16.9287 56.3499 16.5887 55.9499C16.5687 56.1099 16.5587 56.2699 16.5587 56.4299C16.5587 56.5699 16.5587 56.7099 16.5587 56.8499C16.5587 58.0099 16.7587 58.8899 17.1587 59.4899C17.5587 60.0899 18.0187 60.3899 18.5387 60.3899Z" />
<path d="M28.9325 64.7699C28.6725 64.7699 28.4225 64.6699 28.1825 64.4699C27.9625 64.2699 27.7725 64.0699 27.6125 63.8699C26.9725 63.1299 26.4325 62.1499 25.9925 60.9299C25.5725 59.7099 25.2525 58.3699 25.0325 56.9099C24.8125 55.4299 24.7025 53.9299 24.7025 52.4099C24.7025 50.9899 24.7925 49.6099 24.9725 48.2699C25.1725 46.9299 25.4725 45.7099 25.8725 44.6099C26.2725 43.5099 26.7725 42.6299 27.3725 41.9699C28.1525 41.0899 28.9025 40.6499 29.6225 40.6499C30.0625 40.6499 30.4125 40.8499 30.6725 41.2499C30.9525 41.6299 31.0925 42.2399 31.0925 43.0799C31.0925 43.8799 30.9325 44.8999 30.6125 46.1399C30.3125 47.3599 29.7925 48.8199 29.0525 50.5199C28.7925 51.0799 28.5125 51.6399 28.2125 52.1999C27.9325 52.7599 27.6325 53.3499 27.3125 53.9699C27.1925 54.2099 27.0925 54.3299 27.0125 54.3299C26.9725 54.3299 26.9525 54.2899 26.9525 54.2099C26.9525 54.0499 27.0225 53.8399 27.1625 53.5799C28.9825 50.1599 29.8925 46.7599 29.8925 43.3799C29.8925 42.0399 29.6125 41.3699 29.0525 41.3699C28.6525 41.3699 28.1825 41.7599 27.6425 42.5399C26.9025 43.6399 26.3925 44.9499 26.1125 46.4699C25.8325 47.9699 25.6925 49.4899 25.6925 51.0299C25.6925 52.1899 25.7425 53.3199 25.8425 54.4199C25.9425 55.4999 26.0625 56.4799 26.2025 57.3599C26.2625 57.7399 26.3525 58.2499 26.4725 58.8899C26.5925 59.5299 26.7525 60.1999 26.9525 60.8999C27.1525 61.6199 27.3725 62.2699 27.6125 62.8499C27.8725 63.4499 28.1525 63.8799 28.4525 64.1399C28.5325 64.1999 28.6125 64.2599 28.6925 64.3199C28.7925 64.3999 28.9025 64.4499 29.0225 64.4699C29.2025 64.4699 29.2925 64.5199 29.2925 64.6199C29.2925 64.7199 29.1725 64.7699 28.9325 64.7699Z" />
<path d="M33.1016 61.0499C32.4416 61.0499 31.9016 60.8499 31.4816 60.4499C31.0816 60.0499 30.7816 59.5399 30.5816 58.9199C30.3816 58.2799 30.2816 57.6099 30.2816 56.9099C30.2816 56.4899 30.3216 56.0899 30.4016 55.7099C30.4816 55.3299 30.5616 55.0199 30.6416 54.7799C30.6216 54.6399 30.6016 54.4999 30.5816 54.3599C30.5816 54.1999 30.5816 54.0399 30.5816 53.8799C30.5816 53.2999 30.6416 52.6699 30.7616 51.9899C30.8816 51.3099 31.0716 50.6599 31.3316 50.0399C31.6116 49.4199 31.9516 48.9199 32.3516 48.5399C32.7716 48.1399 33.2816 47.9399 33.8816 47.9399C34.4016 47.9399 34.9116 48.1599 35.4116 48.5999C35.9116 49.0199 36.3516 49.6399 36.7316 50.4599C36.9516 50.9199 37.1016 51.4199 37.1816 51.9599C37.2816 52.4799 37.3316 53.0099 37.3316 53.5499C37.3316 54.2899 37.2516 55.0299 37.0916 55.7699C36.9516 56.4899 36.7416 57.1699 36.4616 57.8099C36.2616 58.2699 35.9916 58.7599 35.6516 59.2799C35.3316 59.7799 34.9616 60.1999 34.5416 60.5399C34.1216 60.8799 33.6416 61.0499 33.1016 61.0499ZM33.2516 60.3899C33.9316 60.3899 34.5616 59.9199 35.1416 58.9799C35.5616 58.3199 35.8616 57.5699 36.0416 56.7299C36.2216 55.8699 36.3116 55.0099 36.3116 54.1499C36.3116 53.5099 36.2716 52.8899 36.1916 52.2899C36.1116 51.6899 35.9916 51.1099 35.8316 50.5499C35.6916 50.0499 35.4516 49.6099 35.1116 49.2299C34.7916 48.8299 34.3316 48.6599 33.7316 48.7199C33.2516 48.7599 32.8316 48.9999 32.4716 49.4399C32.1116 49.8799 31.8316 50.3799 31.6316 50.9399C31.4516 51.4799 31.3616 51.9499 31.3616 52.3499C31.3616 52.5699 31.3916 52.7399 31.4516 52.8599C31.5116 52.6999 31.6616 52.4399 31.9016 52.0799C32.1416 51.6999 32.4116 51.3599 32.7116 51.0599C33.0116 50.7399 33.2916 50.5799 33.5516 50.5799C33.7716 50.5799 33.8816 50.6699 33.8816 50.8499C33.6216 50.8699 33.3616 51.0299 33.1016 51.3299C32.8616 51.6099 32.6316 51.9499 32.4116 52.3499C32.2116 52.7499 32.0416 53.1499 31.9016 53.5499C31.7816 53.9299 31.6916 54.2299 31.6316 54.4499C31.6116 54.5299 31.5816 54.6299 31.5416 54.7499C31.5016 54.8699 31.4816 54.9899 31.4816 55.1099C31.4816 55.2499 31.5616 55.4799 31.7216 55.7999C31.8816 56.0999 32.1416 56.3799 32.5016 56.6399C32.8616 56.8999 33.3516 57.0299 33.9716 57.0299C34.1516 57.0299 34.3416 57.0099 34.5416 56.9699C34.7416 56.9299 34.9316 56.8899 35.1116 56.8499L35.3216 56.7899C35.3616 56.7899 35.3816 56.8099 35.3816 56.8499C35.3816 56.9099 35.3116 56.9899 35.1716 57.0899C35.0516 57.1699 34.9416 57.2299 34.8416 57.2699C34.5616 57.4099 34.2516 57.4799 33.9116 57.4799C33.4116 57.4799 32.9316 57.3299 32.4716 57.0299C32.0316 56.7099 31.6416 56.3499 31.3016 55.9499C31.2816 56.1099 31.2716 56.2699 31.2716 56.4299C31.2716 56.5699 31.2716 56.7099 31.2716 56.8499C31.2716 58.0099 31.4716 58.8899 31.8716 59.4899C32.2716 60.0899 32.7316 60.3899 33.2516 60.3899Z" />
<path d="M43.0454 61.4999C42.4054 61.4999 41.9154 61.1999 41.5754 60.5999C41.2354 60.0199 41.0654 59.3799 41.0654 58.6799C41.0654 58.0199 41.1754 57.3299 41.3954 56.6099C41.6154 55.8899 41.8854 55.1799 42.2054 54.4799C42.5454 53.7799 42.8954 53.1399 43.2554 52.5599C42.8954 52.6999 42.5554 52.7699 42.2354 52.7699C42.0754 52.7699 41.9354 52.7499 41.8154 52.7099C41.6954 52.6699 41.5954 52.6399 41.5154 52.6199C41.4154 52.8599 41.2354 53.2599 40.9754 53.8199C40.7354 54.3799 40.4754 54.9699 40.1954 55.5899C39.9354 56.1899 39.7054 56.6999 39.5054 57.1199C39.1854 57.7999 38.9054 58.1399 38.6654 58.1399C38.5454 58.1399 38.4854 58.0599 38.4854 57.8999C38.4854 57.7799 38.5354 57.6199 38.6354 57.4199C39.0954 56.5599 39.5254 55.7099 39.9254 54.8699C40.3454 54.0299 40.7254 53.2199 41.0654 52.4399C41.0254 52.3399 40.9854 52.2099 40.9454 52.0499C40.9054 51.8699 40.8854 51.6799 40.8854 51.4799C40.8854 51.2599 40.9054 51.0299 40.9454 50.7899C41.0054 50.5299 41.0854 50.2799 41.1854 50.0399C41.2454 49.8999 41.3554 49.6999 41.5154 49.4399C41.6754 49.1599 41.8554 48.9099 42.0554 48.6899C42.2554 48.4499 42.4454 48.3299 42.6254 48.3299C42.9654 48.3299 43.1354 48.5099 43.1354 48.8699C43.1354 49.2099 43.0254 49.5999 42.8054 50.0399C42.6054 50.4799 42.3954 50.8899 42.1754 51.2699C41.9554 51.6299 41.8454 51.8999 41.8454 52.0799C41.8454 52.2399 41.9254 52.3199 42.0854 52.3199C42.3054 52.3199 42.5754 52.2099 42.8954 51.9899C43.2354 51.7499 43.5054 51.5299 43.7054 51.3299C43.8054 51.2299 43.9654 51.0799 44.1854 50.8799C44.4054 50.6599 44.6154 50.5499 44.8154 50.5499C45.0154 50.5499 45.1454 50.6099 45.2054 50.7299C45.2854 50.8499 45.3254 50.9899 45.3254 51.1499C45.3254 51.3299 45.2454 51.5599 45.0854 51.8399C44.9254 52.0999 44.7354 52.3599 44.5154 52.6199C44.3154 52.8799 44.1454 53.0999 44.0054 53.2799C43.7254 53.6999 43.4054 54.2299 43.0454 54.8699C42.6854 55.5099 42.3754 56.1999 42.1154 56.9399C41.8554 57.6599 41.7254 58.3499 41.7254 59.0099C41.7254 59.4499 41.8354 59.9099 42.0554 60.3899C42.2754 60.8699 42.5754 61.1099 42.9554 61.1099C43.2954 61.1099 43.6554 60.9299 44.0354 60.5699C44.4354 60.2099 44.8054 59.7799 45.1454 59.2799C45.5054 58.7799 45.8154 58.2999 46.0754 57.8399C46.3554 57.3799 46.5454 57.0599 46.6454 56.8799C46.6854 56.7799 46.7554 56.6599 46.8554 56.5199C46.9554 56.3599 47.0754 56.2799 47.2154 56.2799C47.3354 56.2799 47.3954 56.3399 47.3954 56.4599C47.3954 56.5599 47.3654 56.6799 47.3054 56.8199C47.2654 56.9399 47.2254 57.0499 47.1854 57.1499C47.0054 57.5699 46.7854 58.0099 46.5254 58.4699C46.2654 58.9299 46.0854 59.2399 45.9854 59.3999C45.7054 59.8599 45.2854 60.3199 44.7254 60.7799C44.1854 61.2599 43.6254 61.4999 43.0454 61.4999Z" />
<path d="M50.1505 61.2899C49.8905 61.2899 49.7005 61.1999 49.5805 61.0199C49.4805 60.8599 49.4305 60.6999 49.4305 60.5399C49.4305 60.2199 49.5705 59.8899 49.8505 59.5499C49.9505 59.4299 50.0905 59.2699 50.2705 59.0699C50.4505 58.8499 50.5805 58.6799 50.6605 58.5599C50.4005 58.1999 50.0505 57.8699 49.6105 57.5699C49.1705 57.2699 48.7405 56.8899 48.3205 56.4299C47.9405 56.0099 47.6205 55.4999 47.3605 54.8999C47.1005 54.2799 46.9705 53.6899 46.9705 53.1299C46.9705 52.4699 47.1205 51.8399 47.4205 51.2399C47.7205 50.6399 48.0905 50.1199 48.5305 49.6799C49.0105 49.1999 49.5405 48.8199 50.1205 48.5399C50.7005 48.2399 51.3005 48.0899 51.9205 48.0899C52.3405 48.0899 52.7505 48.1899 53.1505 48.3899C53.5505 48.5899 53.7505 48.9199 53.7505 49.3799C53.7505 49.9199 53.6305 50.1899 53.3905 50.1899C53.2905 50.1899 53.2205 50.0899 53.1805 49.8899C53.1605 49.7899 53.1505 49.6899 53.1505 49.5899C53.1505 49.4699 53.1505 49.3899 53.1505 49.3499C53.1505 49.1499 53.0605 48.9799 52.8805 48.8399C52.7005 48.6799 52.5005 48.5999 52.2805 48.5999C51.8205 48.5999 51.3105 48.7799 50.7505 49.1399C50.1905 49.4999 49.7205 49.9199 49.3405 50.3999C48.9605 50.8999 48.6505 51.4699 48.4105 52.1099C48.1705 52.7299 48.0505 53.3299 48.0505 53.9099C48.0505 54.6299 48.2105 55.2499 48.5305 55.7699C48.8505 56.2899 49.2305 56.7499 49.6705 57.1499C50.1305 57.5499 50.5405 57.9399 50.9005 58.3199C51.0805 58.0999 51.2705 57.8899 51.4705 57.6899C51.6905 57.4899 51.8905 57.3299 52.0705 57.2099C52.2305 57.1099 52.3405 57.0599 52.4005 57.0599C52.4605 57.0599 52.4905 57.0899 52.4905 57.1499C52.4905 57.2499 52.4005 57.3699 52.2205 57.5099C52.1805 57.5499 52.0605 57.6699 51.8605 57.8699C51.6805 58.0499 51.4605 58.2799 51.2005 58.5599C51.3605 58.7399 51.4905 58.9299 51.5905 59.1299C51.6905 59.3299 51.7405 59.5499 51.7405 59.7899C51.7405 60.1099 51.5605 60.4399 51.2005 60.7799C50.8405 61.1199 50.4905 61.2899 50.1505 61.2899ZM50.4805 60.4799C50.6205 60.4799 50.7505 60.3499 50.8705 60.0899C51.0105 59.8499 51.0805 59.6099 51.0805 59.3699C51.0805 59.2499 51.0605 59.1399 51.0205 59.0399C50.9805 58.9399 50.9505 58.8799 50.9305 58.8599C50.7705 59.0599 50.6205 59.2799 50.4805 59.5199C50.3605 59.7399 50.3005 59.9399 50.3005 60.1199C50.3005 60.3599 50.3605 60.4799 50.4805 60.4799Z" />
</svg>
