<?xml version="1.0" encoding="UTF-8"?>
<!DOCTYPE svg PUBLIC "-//W3C//DTD SVG 1.1//EN" "http://www.w3.org/Graphics/SVG/1.1/DTD/svg11.dtd">
<svg xmlns="http://www.w3.org/2000/svg" xml:space="preserve" width="60px" height="60px" version="1.1" shape-rendering="geometricPrecision" text-rendering="geometricPrecision" image-rendering="optimizeQuality" fill-rule="evenodd" clip-rule="evenodd"
viewBox="0 0 60 60"
 xmlns:xlink="http://www.w3.org/1999/xlink"
 xmlns:xodm="http://www.corel.com/coreldraw/odm/2003">
  <path fill="#6644EC" fill-rule="nonzero" d="M22.67 60c-1.45,0 -2.94,-0.43 -4.48,-1.29 -1.49,-0.86 -2.96,-2.24 -4.41,-4.14 -1.13,-1.54 -1.97,-3.32 -2.51,-5.36 -0.55,-1.99 -0.82,-3.96 -0.82,-5.91 0,-0.99 0.07,-1.96 0.21,-2.92 0.13,-1.04 0.4,-2.21 0.81,-3.52 0.45,-1.32 0.9,-2.4 1.36,-3.26 0.13,-0.27 0.34,-0.57 0.61,-0.88 0.27,-0.32 0.47,-0.48 0.61,-0.48 0.04,0 0.07,0.02 0.07,0.07 0,0.04 -0.21,0.52 -0.61,1.42 -1.14,2.27 -1.7,4.78 -1.7,7.54 0,2.49 0.38,4.93 1.15,7.33 0.82,2.35 1.86,4.39 3.13,6.11 1.22,1.63 2.42,2.8 3.59,3.53 1.18,0.72 2.33,1.08 3.46,1.08 1.63,0 3.15,-0.68 4.55,-2.03 1.41,-1.32 2.58,-3.01 3.53,-5.1 0.68,-1.4 1.25,-3.23 1.7,-5.49 0.45,-2.31 0.81,-4.89 1.09,-7.74 0.27,-2.85 0.38,-5.77 0.33,-8.76l0 -0.61c-1.58,0.68 -3.12,1.5 -4.61,2.45 -1.45,0.9 -2.85,1.92 -4.21,3.05 -0.14,0.14 -0.27,0.2 -0.41,0.2 -0.27,0 -0.49,-0.15 -0.68,-0.47 -0.18,-0.36 -0.27,-0.7 -0.27,-1.02 0,-0.54 0.16,-0.9 0.48,-1.08 1.54,-1.18 3.1,-2.15 4.68,-2.92 1.63,-0.77 3.3,-1.38 5.02,-1.84 -0.04,-2.94 -0.31,-5.81 -0.81,-8.62 -0.45,-2.8 -1.06,-5.4 -1.83,-7.8 -0.73,-2.4 -1.54,-4.44 -2.45,-6.11l-0.06 -0.07c-3.04,0.05 -5.98,0.36 -8.83,0.95 -2.8,0.54 -5.32,1.38 -7.53,2.51 -2.22,1.09 -3.98,2.49 -5.3,4.21 -1.26,1.68 -1.9,3.69 -1.9,6.04 0,1 0.09,1.92 0.27,2.78 0.23,0.82 0.59,1.52 1.09,2.11 0.27,0.27 0.41,0.52 0.41,0.75 0,0.27 -0.14,0.4 -0.41,0.4 -0.27,0 -0.54,-0.15 -0.81,-0.47 -0.77,-0.91 -1.27,-1.9 -1.5,-2.99 -0.27,-1.09 -0.41,-2.17 -0.41,-3.26 0,-2.21 0.5,-4.16 1.5,-5.83 1.04,-1.68 2.4,-3.1 4.07,-4.28 1.72,-1.22 3.6,-2.19 5.63,-2.92 2.04,-0.77 4.1,-1.36 6.18,-1.76 2.13,-0.41 4.07,-0.64 5.84,-0.68 -0.63,-0.73 -1.22,-1.16 -1.77,-1.29 -0.49,-0.18 -0.95,-0.25 -1.35,-0.21 -0.37,0 -0.68,-0.09 -0.95,-0.27 -0.18,-0.13 -0.28,-0.29 -0.28,-0.47 0,-0.45 0.59,-0.68 1.77,-0.68 0.86,0 1.83,0.23 2.92,0.68 1.13,0.4 2.15,1.15 3.05,2.24 2.08,0.04 4.42,0.25 6.99,0.61 2.58,0.36 5.12,0.95 7.61,1.76 2.49,0.82 4.66,1.93 6.51,3.33 1.86,1.36 3.08,3.1 3.67,5.23 0.04,0.13 0.07,0.33 0.07,0.61 0,0.4 -0.12,0.61 -0.34,0.61 -0.23,0 -0.46,-0.27 -0.68,-0.82 -0.5,-1.81 -1.83,-3.35 -4.01,-4.61 -2.17,-1.27 -4.86,-2.26 -8.07,-2.99 -3.17,-0.77 -6.54,-1.2 -10.12,-1.29 0.95,1.81 1.7,3.94 2.24,6.38 0.59,2.44 1.02,5.02 1.29,7.74 0.32,2.67 0.52,5.32 0.61,7.94 1.31,-0.27 2.65,-0.45 4.01,-0.54 1.35,-0.14 2.73,-0.21 4.14,-0.21 0.36,0 0.68,0.07 0.95,0.21 0.27,0.09 0.4,0.18 0.4,0.27 0,0.27 -0.56,0.41 -1.69,0.41 -2.67,0 -5.27,0.38 -7.81,1.15 0,0.45 0,0.93 0,1.43 0.05,0.49 0.07,0.97 0.07,1.42 0,2.08 -0.07,3.98 -0.2,5.7 -0.09,1.68 -0.18,3.03 -0.28,4.08 -0.36,3.34 -1.19,6.44 -2.51,9.29 -1.31,2.85 -2.94,5.12 -4.88,6.79 -1.9,1.72 -3.96,2.58 -6.18,2.58z"/>
</svg>
